<?xml version="1.0" encoding="UTF-8"?><svg id="Layer_1" xmlns="http://www.w3.org/2000/svg" viewBox="0 0 62.94 62.92"><defs><style>.cls-1{fill:#006c66;stroke-width:0px;}</style></defs><g image-rendering="auto"><path class="cls-1" d="m31.47,62.05C14.6,62.05.89,48.33.89,31.46S14.61.88,31.47.88s30.58,13.72,30.58,30.58-13.72,30.59-30.58,30.59M31.47,0C14.12,0,0,14.11,0,31.46s14.11,31.46,31.47,31.46,31.47-14.11,31.47-31.46C62.93,14.11,48.82,0,31.47,0"/><path class="cls-1" d="m52.14,36.58c-.98.86-2.48.93-3.08,1.49-.32.29-.46.74-.12,1.55.2.47.33.52-.34.7-1.09.29-1.24,1.72-2.62,1.46-.55-.1-.16.25.04.27.79.08,1.11-.15,1.38-.41.28-.26.65-.73,1.07-.89.44-.17.88-.16.89.17.01.25-.55.65-.78.76.28.15,1.15.59.41,1.09-.58.39-1.37-.15-1.49-.22-.17-.1-.5-.05-.39.08.43.52,1.58.39,1.37.66-1.06,1.43-.2,2.26-.52,3.69-.33,1.45-2.31,2.25-3.84,2.52-5.2.94-10.26-3.49-13.23-6.82.27-.63.24-1.46-.04-1.17-.26.28-.21.74-.83.9-1.19.3-1.71-1.77-2.08-2.13-1.45-1.42-2.02-3.42-1.16-5.18.87-1.77,2.69-1.42,3.41-.35.9,1.33.48,2.09,1,2.49.72.56,1.44.06,1.64,0,.55-.15.51,1.3,2.38,1.23,2.01-.07,1.78-3.2,2.07-3.48,2.58-2.51,1.26-4.76.79-5.28-.13-.14.29-1.06.44-1.1,1.51-.33,2.37-1.3,2.83-2.33,0,0,2.52-.04,3.41-1.85.24-.48.98.47,2.66-.85.19-.15.37-.08.44.1,1.08,2.65,1.53,3.38,1.45,4.73-.06.98,2.62,6.43,2.82,6.9.24.52.27,1.04.02,1.26m-11.94,13.81c-.77,2.65-1.15,3.7,0,6.58.15.38.27.67-.07.61-2.32-.4-2.82-.78-10.08-.16-.52.04.17-1.01.09-1.73.66-.08,1.72-.39,1.95-1.47.27-1.31-.64-2.27-.54-2.46,1.03-2.01-.07-4.24-.94-7.97-.08-.35.12-.5.27-.34,4.67,5.06,7.65,6.06,9.26,6.54.15.04.11.22.06.4m-14.16,7c-.48-.12-1.8-2.22-.72-4.73.11-.26,1.76-.1,2.04-.02s-.23,2.05,2.04,2.93c.22.09-.02,2.65-3.36,1.82m-3.4-1.26c-.25-1.1-.35-3.01.11-3.44.09-.08,1.46-.28,1.44.03-.1,1.32-.64,2.79.36,4.25.38.55-1.57.64-1.91-.84m8.09-1.3c-1.78.62-2.48-1.47-2.19-1.91.18-.27,1.3.31,2.18-.26.67-.44,1.04,1.81,0,2.17m-10.52-2.96c-.1-.59.47-1.16.46-2.46,0-1.59-1.98-3.77-3.31-5.18.62,0,1.44-.15,2.36-.57,1.98-.92,2.37-3.02,2.42-3.1.03-.04-.44-.13-1.12-.14.07-.03.15-.07.22-.11,1.94-1.04,2.44-3.28,2.35-3.33-.04-.02-.52-.1-1.19-.08.19-.06.38-.14.59-.22,2.05-.81,2.62-3.09,2.55-3.17-.03-.03-.44-.11-1.04-.13.18-.07.37-.15.56-.24,1.87-.93,2.52-3.02,2.42-3.09-.04-.03-.42-.1-.98-.11.42-.09.87-.23,1.35-.44,2-.88,2.65-2.79,2.56-2.88-.04-.03-.38-.13-.89-.17.4-.09.84-.21,1.3-.37,1.98-.68,2.78-2.57,2.66-2.58-.27-.03-.64-.16-1.11-.24.54-.04,1.17-.13,1.96-.4,2.14-.72,2.9-2.01,2.94-2.57,0-.04-.26-.15-.67-.24.49-.09.98-.21,1.39-.38,2-.81,2.83-2.77,2.9-2.94.36-.12.76-.27,1.17-.45.21-.09.4-.19.57-.3.1.07.25.19.49.34.3.19.41.24.26.37-6.8,5.8-11.9,13.11-14.12,16.67-.06.1-.18.08-.37.07-2.38-.16-3.73,2.68-2.67,5.34-.13.54-1.26,1.59-1.35,1.66s-.31.41.07.37c.56-.05,1.27-.94,1.61-1.34.14.18.67.61.41.86-2.02,1.99-4.03,3.06-4.18,3.13-.76.37,1.26.63,4.71-2.49.2-.18.44.72.75,1.11-.59,1.95.87,5.73.64,6.91-.04.21-.16.79-.85.81-3.42.07-3.75-.09-5.49.43-.81.24-.6.77,0,.61.67-.18,1.36-.45,5.06-.22.9.06,1.94-.18,1.94-1.71,0-1.38-1.09-5.51-.72-6.07.49.37.85.38,1.03.42-.05,1.35,2.12,5.69,1.15,8.09-.36.89-1.93.82-4.62.56-4.58-.47-6.07.52-6.16-.03m-.09,3.31c-.2-.79-.12-1.88.15-2.17.52-.25,1.47-.35,1.49-.05.03.48-.33,1.63.09,3.06-.1.23-1.39.13-1.73-.84m-1.56-13.92c1.16-.55,2.88-.42,2.79-.34s-.55,1.75-1.85,2.41c-1.3.65-2.16.48-2.63.39.69-.77.55-1.91,1.69-2.46m-2.4,2.16c-.39-.37-1.23-1.3-1.32-2.5,0-.06-.01-.12-.01-.17,0-1.29.57-2.56.71-2.7s1.6.99,1.62,2.62c.02,1.4-.62,2.2-1,2.75m-1.07,1.67h-.01c-3.22-3.79-4.92-8.49-4.92-13.63,0-11.75,9.56-21.31,21.31-21.31,3.1,0,6.08.65,8.87,1.93-.37.17-.79.42-1.23.78-2.45-1.04-4.92-1.53-7.64-1.53-11.1,0-20.14,9.03-20.14,20.13,0,4.81,1.5,9.05,4.44,12.6-.16.26-.4.62-.68,1.03m-.04,7.45c-6.48-5.16-10.36-12.95-10.36-21.08,0-14.76,12.01-26.77,26.77-26.77,4.31,0,8.63,1.08,12.42,3.05.08.04.09.14.02.2-1.11.97-2.66,2.88-3.05,3.41-2.95-1.38-6.1-2.09-9.39-2.09-12.24,0-22.19,9.96-22.19,22.19,0,5.46,1.85,10.44,5.34,14.44-.2.46-.56,1.48-.56,2.83.01,1.12.22,2.4,1,3.82m19.88-32.72c-.16-.11,1.28-1.72,2.45-2.16,1.14-.43,2.38-.35,2.48-.3.1.06-.75,1.45-2.13,2.01-1.3.52-2.65.55-2.8.45m-3.64,2.95c.02-.09,1.21-1.76,2.43-2.19,1.17-.4,2.59-.13,2.74-.07s-.82,1.53-2.32,1.97c-1.34.41-2.87.37-2.85.29m-3.59,3.41c-.08-.04,1-1.88,2.22-2.35,1.16-.45,2.31-.04,2.66-.02.28.02-.4,1.35-1.99,1.94-1.33.49-2.69.53-2.89.43m-3.21,3.54c-.1-.07,1.32-1.93,2.5-2.47,1.04-.48,2.4-.38,2.51-.3s-.55,1.64-1.92,2.24c-1.3.57-2.99.61-3.09.53m-2.67,3.58c.06-.14,1.06-1.93,2.23-2.48,1.16-.55,2.57-.43,2.66-.4.1.03-.53,1.62-1.86,2.28-1.32.65-3.09.74-3.03.6m-2.06,3.54c.09-.46.9-1.96,2.12-2.51,1.23-.55,2.65-.51,2.81-.44s-.51,1.67-1.74,2.26c-1.38.67-1.94.28-3.19.69m.11,1.01c1.37-.6,2.87-.51,2.93-.45s-.44,1.75-1.77,2.46-2.84.78-2.97.61c-.08-.09.44-2.02,1.81-2.62m-2.18-3.76c.53.27,1.16,1.03,1.22,2.45.06,1.43-.96,2.63-1.36,2.82-.28-1.09-.81-1.32-.79-2.4,0-1.17.6-2.47.93-2.87m3.62-1.88c-.03,1.83-1.18,2.9-1.52,3.24-.21-.36-.63-1.3-.66-2.27-.05-1.88.72-2.55,1.06-2.92.16.54,1.13.97,1.12,1.95m2.56-3.83c0,.35-.04.55-.14.9-.38,1.3-1.15,1.85-1.56,2.44-.17-.39-.47-.93-.48-1.76,0-1.57.95-2.91,1.55-3.34.23,0,.63.95.63,1.76m2.51-1.98c-.53,1.16-.87,1.19-1.49,1.91-.11.12-.57-1.1-.12-2.64.36-1.23,1.18-1.68,1.58-2.1.16-.16.59,1.6.03,2.83m3.09-3.21c-.52.91-.99.7-1.86,1.99-.1.14-.32-1.07.2-2.7.4-1.26,1.64-2.04,1.77-2.08.19-.04.51,1.71-.11,2.79m3.32-3.02c-1.01,1.51-1.07.99-2.18,2.47-.06.08-.08-1.93.31-2.81.62-1.4,1.71-2.22,1.87-2.25.16-.02.56,1.76,0,2.59m3.03-2.25c-.83.67-1.2,1.12-1.69,1.9-.16.27-.57-1.49.51-3.18.66-1.03,1.97-1.96,1.94-1.84-.08.42.65,1.98-.76,3.12m2.77-3.9c.85-1.01,2.3-1.82,2.46-1.72.17.1-.24,1.67-1.18,2.58-.94.93-2.4,1.83-2.57,1.82s.52-1.77,1.29-2.68m-22.2,23.87c-.43-.5-.83-.77-.88-.74-.12.08-.82,1.28-1.06,2.68-1.36-2.61-2.12-5.24-2.24-8.37-.42-10.61,8.47-19.15,19.31-19.11,2.47.01,4.51.47,6.73,1.37-.5.62-.86,1.37-1.1,1.99,0-.58-.16-1.02-.12-1.38.03-.22-1.54.26-2.92,2.47-.32.51-.52,1.08-.65,1.6-.03-.83-.22-1.47-.28-1.46-.14.04-1.73.69-2.55,2.63-.14.34-.25.69-.33,1.03-.07-.6-.22-.98-.27-.98-.1,0-1.76.69-2.58,2.67-.19.46-.29.93-.34,1.37-.15-.69-.42-1.12-.5-1.01-.57.73-1.69,1.05-2.29,2.88-.14.43-.19.86-.2,1.26-.25-.62-.59-.98-.67-.96-.16.03-1.85,1.64-2.1,3.26-.1.64-.05,1.23.05,1.73-.32-.52-.75-.9-.93-1.44-.27.14-1.7,1.49-1.74,3.21-.02.67.08,1.3.22,1.83-.48-.86-1.15-1.27-1.23-1.22-.12.08-1.19,1.23-1.44,3.31-.06.49,0,.96.11,1.38m24.96-23.45c1.08-.49,2.13-.5,2.24-.48.24.03-.55,1.44-1.96,2.05-1.46.63-2.54.74-2.67.68-.18-.1,1.24-1.73,2.39-2.25m-9.64,22.22c-.3-.07-.41-.65-.35-.87.13-.51.92-1.56,1.2-1.93.07-.09.21,0,.23.1.17,1.22,0,2.93-1.08,2.7m5.77-7.68c-.65.44-1.58-.16-1.39-.42,1.2-1.71,2.8-2.9,3.44-3.3,1.03-.64,1.14-.69,1.19-.32.03.22.04,1.34-.79,2.25-.69.76-1.38.69-1.73.77-.23.04-.22.68-.72,1.02m-1.82,8.72c-1.21.74-1.86-.67-2.03-.92-.07-.11-.27-.42-.16-.95.08-.42.15-.99-.12-2.79-.12-.79,1.52-2.76,1.89-3.1.38-.36.94.18.98.76.07,1.1-.55,1.68-1.18,2.15-.78.58-.92,1.33-.78,1.53.06.08.4.08.56-.24.47-.99,1.8-1.5,2.01-2.01.33-.81.09-1.34.06-1.68-.03-.3.26-.37.48-.34.28.04.41.43.55.8.86,2.25-1.31,3.61-1.66,4.14-.16.25.34,2.08-.6,2.65m6.09-13.67c-.06-.36,2.56-1.24,2.65-.98.17.48-.54,1.77-1.42,2.1-1,.37-1.41.26-1.37.12.06-.26.19-.9.14-1.24m6.18-1.6c-.31.88-2.75,1.67-2.63,1.05.05-.28,0-.65.19-.68.27-.05,1.04-.31,2.24-.62.12-.03.28.03.2.25m-2.46-6.5c.36-.23.74-.32.97-.1.79.78-.85,1.21-.51,1.81.56.98,1.45,1.92,2.24,2.52.37.28.42.92-.99,1.22-1.42.29-7.08,1.79-10.07,4.95-3.74,3.96-6.12,9.09-6.44,8.39-.33-.71-1.08-.83-.96-1.03,5.37-9.25,13.78-16.51,15.76-17.76m-26.07,37.75c-.21.04-.89.07-.74-.82.09-.55.69-.78,1-.47-.07.42-.22.84-.26,1.29m30.53-24.62c-.44-.91-.14-1.51-.27-2.17-.1-.49-.83-2.11-1.29-3.23-.22-.53,1.13-.4.13-2.3-.03-.06,1.38-.58-.03-1.65-.79-.6-1.35-1.34-1.78-2-.06-.09-.12-.27,0-.39.8-.71.82-1.73-.05-2.25-.62-.38-1.34.01-2,.43-.22.14-.33.23-.55.14-.12-.05-.34-.2-.54-.34.82-.79.97-1.56.91-1.69-.04-.09-1.38-.39-3.04.3-.04-.02-.07-.04-.12-.06.68-1.18.3-2.01.25-2.07,1.24-1.74,2.48-2.89,3.69-4l.03-.03c.08-.08.11-.17-.04-.26-.13-.08-.16-.1-.32-.18-4.09-2.27-8.74-3.47-13.44-3.47C16.23,3.84,3.83,16.25,3.83,31.49c0,8.83,4.48,17.36,11.81,22.65.49.35.83.49.83.49.12.04.25.04.32-.06l.11-.14c.07-.09.1-.17.1-.25,0-.2-.29-.38-.63-.89-.99-1.47-1.43-3.14-1.43-4.54,0-1.53.47-2.92,1.36-4.08,1.1,1.15,3.51,3.26,3.46,5.19-.06,2.16-2.08,2.05-1.64,3.67.27,1.02,1.04.6,1.17,1.37.23,1.34,2.03,2.19,2.81,2.07.19-.03.35.13.73.51.53.54,1.85.47,2.43.36.55-.1,1.25.4,2.41.28,1.45-.16,1.82-.27,2.44-.28,1.05-.01,6.75-.1,10.81.53.7.11.92-.21.61-.75-1.47-2.56-1.67-4.73-.83-7.47,1.5.1,3.65.51,6.49-1.2,1.01-.61,1.57-1.89,1.52-2.85-.03-.62-.3-1.41-.14-2.02.22-.82.38-.8.61-.96,1.08-.76.3-1.37.13-1.43.33-.13.69-.84.31-1.37-.19-.21-.78-1.86-.1-2.21.74-.37,1.57-.53,2.42-.9.58-.24,1.04-.92.71-1.82-.44-1.12-2.65-6.19-2.72-6.33"/><path class="cls-1" d="m46.09,26.98c-1.47.05-3.17,1.85-3.72,2.1-.58.26-.38.43-.04.3.73-.27,1.77-1.38,3.2-1.9,1.13-.41,1.06.52,1.49.47.2-.02-.09-1-.93-.97"/><path class="cls-1" d="m45.88,31.19c-.07.27-1.63.15-2.49.07-.2-.02-.54-.05.11-.44.51-.31,1.21-.82,2.14-1,.07,0,.22,0,.26.18.09.44.04.91-.02,1.19m.54-2.77c-.12.03.13.65-.51.69-1.38.09-2.47,1.39-3.31,1.78s-1.01.38-1.14.42c-.11.03-.07.17.02.19,3.51.47,4.86.34,4.89.21.06-.24-.19-.36-.14-.52.13-.39.2-1.13.05-1.64-.07-.24.52-.08.52-.4,0-.18-.18-.78-.38-.73"/><path class="cls-1" d="m50.46,36.19c-.27,0-1.35.49-1.76.75-.24.15-1.33.83-1.26-.24.03-.38.27-1.31.27-1.56,0-.39-.32-.24-.32,0,0,.54-.12.95-.23,1.58-.09.54.38,1.21,1.1.82.61-.32,1.43-.88,2.16-1.02.19-.04.23-.32.04-.32"/><path class="cls-1" d="m30.12,40.03c-.21-.08-.15.35-.43.3-.37-.06-.06-.39-.54-.9-.24-.25-.84-.36-1.28-1.07-.7-1.12-.1-3.61.92-3.26.57.2.47,1.52.3,2.42-.1.55.75.82.83.63.13-.32-.31-.29-.42-.59-.16-.45,1.05-2.27-.53-2.8-1.15-.39-1.91,1.07-1.77,2.67.12,1.35,1.02,1.91,1.53,2.1.69.26.17,1.21,1.11,1.21.42.02.51-.63.28-.71"/><path class="cls-1" d="m39.35,10.01s.1,0,.14-.04l1.95-2.47c.05-.06.03-.16-.05-.19-.11-.04-.22-.09-.33-.13-.05-.02-.11,0-.14.04l-1.96,2.48c-.05.07-.02.16.06.19.1.04.22.08.33.12"/><path class="cls-1" d="m35.73,9c.11.02.22.04.34.07.06.01.12-.02.14-.07l1.14-2.82c.03-.07,0-.15-.09-.16-.13-.03-.25-.06-.38-.08-.04-.01-.07.01-.08.04-.14.36-.94,2.33-1.16,2.87-.03.06,0,.14.09.15"/><path class="cls-1" d="m31.71,8.61c.11,0,.23,0,.34.01.06,0,.12-.05.12-.11l.28-3c0-.07-.05-.13-.12-.13-.11,0-.23-.01-.34-.01-.06,0-.12.05-.12.11l-.28,3c0,.07.05.13.12.13"/><path class="cls-1" d="m27.8,8.9c.11-.02.22-.03.34-.05.07-.01.11-.08.1-.14l-.57-2.96c0-.06-.07-.11-.14-.1-.11.02-.23.03-.34.05-.07.01-.11.08-.1.14l.57,2.96c0,.07.08.11.14.1"/><path class="cls-1" d="m23.81,9.81c.03.06.09.08.15.06.11-.04.22-.07.32-.11.07-.02.1-.1.07-.17l-1.35-2.72c-.03-.06-.09-.08-.15-.06-.11.04-.22.08-.32.12-.07.03-.1.1-.07.17l1.35,2.71Z"/><path class="cls-1" d="m20.08,11.54s.1.05.15.03c.1-.06.2-.11.3-.17.07-.04.09-.13.03-.19l-2.02-2.31s-.1-.06-.15-.03l-.3.18c-.06.04-.08.13-.03.19l2.02,2.3Z"/><path class="cls-1" d="m16.62,13.98s.1.03.15-.01c.09-.08.18-.15.27-.22.06-.05.06-.15,0-.19l-2.56-1.78s-.11-.03-.15.01c-.09.08-.18.16-.26.23-.06.05-.05.15.01.19l2.55,1.77Z"/><path class="cls-1" d="m13.6,17.1s.1,0,.14-.04c.08-.09.15-.18.23-.27.05-.06.03-.16-.05-.19l-2.94-1.15s-.11,0-.14.04c-.07.09-.14.19-.22.28-.05.07-.02.16.05.19l2.93,1.14Z"/><path class="cls-1" d="m8.04,20.31l3.15.44s.1-.02.12-.06c.06-.11.12-.21.17-.32.04-.07,0-.17-.09-.18l-3.17-.44s-.1.02-.13.07c-.05.11-.11.21-.16.32-.02.07.03.16.11.17"/><path class="cls-1" d="m6.32,25.09l3.21-.31s.09-.04.1-.08c.04-.12.07-.23.11-.35.03-.08-.04-.17-.13-.16l-3.23.31s-.09.04-.11.09c-.03.12-.06.24-.09.35-.02.08.05.16.14.15"/><path class="cls-1" d="m8.75,28.91c.01-.12.03-.25.04-.37.01-.09-.08-.16-.16-.13l-3.13,1.09s-.08.06-.08.11c-.01.12-.02.25-.02.37-.01.09.08.15.16.12l3.11-1.08s.08-.06.08-.11"/><path class="cls-1" d="m8.68,33.19l-.03-.39c-.01-.09-.11-.15-.19-.1l-2.84,1.86s-.06.07-.05.12c.02.12.03.25.05.37.01.09.11.13.19.08l2.81-1.85s.06-.05.06-.09"/><path class="cls-1" d="m9.39,37.46c-.04-.13-.07-.26-.1-.39-.02-.1-.14-.13-.21-.05l-2.31,2.54s-.04.08-.02.12c.04.12.08.24.13.37.03.09.14.11.21.04l2.28-2.51s.03-.08.02-.12"/><path class="cls-1" d="m10.57,41.26l-1.63,3.1s-.02.08,0,.12c.07.12.13.23.2.35.05.08.17.08.21,0l1.61-3.06s.02-.08,0-.11c-.06-.12-.13-.25-.19-.38-.03-.1-.16-.1-.2,0"/><path class="cls-1" d="m12.86,44.74c-.06-.08-.19-.06-.22.04l-.87,3.59s0,.08.03.11c.09.11.18.21.27.31.07.07.19.04.21-.05l.86-3.55s0-.07-.02-.1c-.09-.12-.18-.24-.26-.35"/></g></svg>