<?xml version="1.0" encoding="UTF-8"?>
<svg version="1.1" xmlns="http://www.w3.org/2000/svg" width="256" height="224">
<path d="M0 0 C0.77923828 0.81984375 0.77923828 0.81984375 1.57421875 1.65625 C5.03729204 5.00221453 8.90348594 7.69922794 12.8125 10.5 C13.59431641 11.06847656 14.37613281 11.63695313 15.18164062 12.22265625 C23.11758184 17.9793808 23.11758184 17.9793808 32 22 C32.495 23.485 32.495 23.485 33 25 C34.485 25.495 34.485 25.495 36 26 C37.485 26.495 37.485 26.495 39 27 C39.33 27.99 39.66 28.98 40 30 C41.91666667 31.16666667 41.91666667 31.16666667 44 32 C46 33 46 33 48.25 35.4375 C50.81536533 38.18364879 50.81536533 38.18364879 54.1875 39.0625 C57 40 57 40 58.125 42.0625 C58.41375 42.701875 58.7025 43.34125 59 44 C59.66 44.165 60.32 44.33 61 44.5 C61.66 44.665 62.32 44.83 63 45 C64.125 47 64.125 47 65 49 C65.66 49.33 66.32 49.66 67 50 C67.38932033 51.98985949 67.71887936 53.99199544 68 56 C68.33 56.99 68.66 57.98 69 59 C69.82446884 76.06458755 69.82446884 76.06458755 67 84 C65.36671709 85.05364354 63.69597501 86.05055461 62 87 C60.76456422 88.09516796 59.55740745 89.22278168 58.375 90.375 C53.06407307 95.2063449 47.17746597 99.07073176 41.23413086 103.06640625 C35.26607296 107.0922037 29.5454311 111.32209014 23.890625 115.7734375 C20.27758251 118.55645671 16.53342983 121.10984609 12.73046875 123.625 C12.15941406 124.07875 11.58835938 124.5325 11 125 C11 125.66 11 126.32 11 127 C10.11248047 127.1846582 10.11248047 127.1846582 9.20703125 127.37304688 C5.73903459 128.35820345 2.95832371 130.50096536 0 132.5 C-8.387158 138.16747288 -14.87563904 138.76616786 -25 138 C-31.65800794 136.50846246 -36.07120197 133.60134811 -40.52734375 128.48828125 C-42.03965871 126.73570974 -42.03965871 126.73570974 -45 126 C-49.10796899 120.54868105 -48.47886051 115.11626078 -48.4375 108.5625 C-48.45748047 107.44294922 -48.47746094 106.32339844 -48.49804688 105.16992188 C-48.49430875 98.87118196 -48.43562679 94.66949112 -44 90 C-42.01171875 88.83984375 -42.01171875 88.83984375 -40 88 C-38.56909175 86.89828029 -37.17331861 85.74970573 -35.8125 84.5625 C-35.11769531 83.96566406 -34.42289063 83.36882812 -33.70703125 82.75390625 C-31.76139663 81.00928915 -31.76139663 81.00928915 -31 78 C-30.29488281 77.91878906 -29.58976562 77.83757812 -28.86328125 77.75390625 C-25.29937802 76.81552518 -23.11492136 75.15951862 -20.1875 72.9375 C-18.72376953 71.83728516 -18.72376953 71.83728516 -17.23046875 70.71484375 C-16.49441406 70.14894531 -15.75835937 69.58304687 -15 69 C-14.88258044 66.69400597 -14.88258044 66.69400597 -16 64 C-18.44960231 61.74645961 -21.21497645 59.99919968 -24 58.1875 C-29.82249945 54.26153076 -35.25969086 50.30989904 -40.3359375 45.42578125 C-42.05374893 43.77257379 -42.05374893 43.77257379 -45 43 C-47.14130869 38.19144716 -47.63614872 33.18013759 -48.1875 28 C-48.28224609 27.21882813 -48.37699219 26.43765625 -48.47460938 25.6328125 C-49.21195802 18.94601717 -49.04538538 13.66353953 -45 8 C-44.34 7.67 -43.68 7.34 -43 7 C-42.690625 6.38125 -42.38125 5.7625 -42.0625 5.125 C-40.92291836 2.84583672 -40.00919307 1.56270572 -38 0 C-36.34080104 -0.36871088 -34.67225729 -0.69595322 -33 -1 C-31.865625 -1.495 -30.73125 -1.99 -29.5625 -2.5 C-19.463494 -6.75221305 -9.562432 -4.781216 0 0 Z M-47 13 C-46 15 -46 15 -46 15 Z M-48 16 C-47 19 -47 19 -47 19 Z M-47 118 C-46 120 -46 120 -46 120 Z " fill="#33A752" transform="translate(187,54)"/>
<path d="M0 0 C2.3413198 1.32766394 2.3413198 1.32766394 5.05078125 2.296875 C7.90750722 3.49944865 8.10309043 4.48601539 9.32421875 7.25390625 C10.00484375 7.81078125 10.68546875 8.36765625 11.38671875 8.94140625 C16.7431615 15.33457986 14.6177787 28.30978705 14.07421875 36.19140625 C13.70177462 39.03003445 13.4435447 40.09327517 11.69921875 42.44140625 C10.91546875 43.03953125 10.13171875 43.63765625 9.32421875 44.25390625 C8.28639733 45.16102231 7.25155234 46.07154852 6.21875 46.984375 C1.53557437 51.01446715 -3.53468901 54.43776343 -8.62304688 57.9296875 C-14.05793318 61.62436027 -14.05793318 61.62436027 -18.67578125 66.25390625 C-18.67578125 67.24390625 -18.67578125 68.23390625 -18.67578125 69.25390625 C-16.43980015 71.10294743 -14.24924276 72.74751976 -11.86328125 74.37890625 C-11.22068359 74.83394531 -10.57808594 75.28898437 -9.91601562 75.7578125 C-7.13680691 77.69893859 -4.92071472 79.17226176 -1.67578125 80.25390625 C0.01419198 81.89693578 1.67638269 83.56861937 3.32421875 85.25390625 C5.05648841 86.73704049 6.80863943 88.190433 8.578125 89.62890625 C13.56158235 94.2667547 14.86670484 97.39186324 15.2265625 104.12304688 C15.25878906 105.09435547 15.29101562 106.06566406 15.32421875 107.06640625 C15.38738281 108.02611328 15.45054688 108.98582031 15.515625 109.97460938 C15.7814064 116.25476675 15.08358452 121.07883787 11.32421875 126.25390625 C9.01171875 127.87890625 9.01171875 127.87890625 6.32421875 129.25390625 C5.20447199 130.23642914 4.10158971 131.23834467 3.01171875 132.25390625 C-3.86865947 138.16397472 -10.36616879 138.74260245 -19.32421875 138.55078125 C-25.09039771 138.04002414 -29.57556325 135.89846373 -34.67578125 133.25390625 C-35.66578125 132.92390625 -36.65578125 132.59390625 -37.67578125 132.25390625 C-38.00578125 131.26390625 -38.33578125 130.27390625 -38.67578125 129.25390625 C-40.59244792 128.08723958 -40.59244792 128.08723958 -42.67578125 127.25390625 C-44.67578125 126.25390625 -44.67578125 126.25390625 -46.73828125 124.078125 C-50.2805143 120.46727413 -54.47652977 117.84940859 -58.67578125 115.06640625 C-65.55694073 110.43672538 -72.21916313 105.65386072 -78.7421875 100.53515625 C-81.65511208 98.26997921 -84.6181252 96.09631047 -87.61328125 93.94140625 C-91.44079665 91.17801813 -95.12309718 88.36250481 -98.67578125 85.25390625 C-99.27390625 84.80015625 -99.87203125 84.34640625 -100.48828125 83.87890625 C-104.00527255 79.06618131 -102.89385299 70.32810113 -102.92578125 64.62890625 C-102.94640625 63.70078125 -102.96703125 62.77265625 -102.98828125 61.81640625 C-103.01678967 56.8416872 -103.02787835 53.24062368 -99.67578125 49.25390625 C-98.68578125 48.75890625 -98.68578125 48.75890625 -97.67578125 48.25390625 C-97.34578125 47.26390625 -97.01578125 46.27390625 -96.67578125 45.25390625 C-95.87140625 44.94453125 -95.06703125 44.63515625 -94.23828125 44.31640625 C-91.52459708 43.52360602 -91.52459708 43.52360602 -90.67578125 41.19140625 C-90.34578125 40.55203125 -90.01578125 39.91265625 -89.67578125 39.25390625 C-88.99773437 39.17011719 -88.3196875 39.08632812 -87.62109375 39 C-83.18151583 37.87538543 -80.1266646 35.16014886 -76.55078125 32.37890625 C-75.83535156 31.83621094 -75.11992188 31.29351562 -74.3828125 30.734375 C-68.75716437 26.69098043 -68.75716437 26.69098043 -64.67578125 21.25390625 C-63.60070313 21.07988281 -63.60070313 21.07988281 -62.50390625 20.90234375 C-58.74202398 20.03981273 -56.4856724 18.20773966 -53.42578125 15.87890625 C-52.61367187 15.27949219 -52.61367187 15.27949219 -51.78515625 14.66796875 C-49.06470335 12.60042454 -47.78003753 11.56667509 -46.67578125 8.25390625 C-45.96164063 8.16882812 -45.2475 8.08375 -44.51171875 7.99609375 C-41.06571307 7.09424653 -39.09919555 5.56792374 -36.30078125 3.37890625 C-24.62295642 -5.38338111 -13.03175668 -7.21593138 0 0 Z M10.32421875 39.25390625 C11.32421875 41.25390625 11.32421875 41.25390625 11.32421875 41.25390625 Z M-101.67578125 54.25390625 C-100.67578125 56.25390625 -100.67578125 56.25390625 -100.67578125 56.25390625 Z M-101.67578125 78.25390625 C-100.67578125 80.25390625 -100.67578125 80.25390625 -100.67578125 80.25390625 Z M13.32421875 116.25390625 C14.32421875 118.25390625 14.32421875 118.25390625 14.32421875 118.25390625 Z M12.32421875 118.25390625 C13.32421875 120.25390625 13.32421875 120.25390625 13.32421875 120.25390625 Z " fill="#E84234" transform="translate(102.67578125,53.74609375)"/>
<path d="M0 0 C2.74520552 1.68442266 5.34169488 3.53265329 7.9375 5.4375 C8.66203369 5.95900635 9.38656738 6.4805127 10.13305664 7.01782227 C12.42729047 8.67141514 14.71352812 10.33569734 17 12 C18.48889484 13.07387189 19.97847332 14.1467966 21.46875 15.21875 C24.45937568 17.37130728 27.44619543 19.52897275 30.4296875 21.69140625 C33.55494324 23.95617222 36.68550349 26.21331998 39.8203125 28.46484375 C66.44993115 47.59936206 66.44993115 47.59936206 69 58 C70.15781294 65.68938811 68.37474121 71.61970992 64 78 C58.38530306 84.33487184 52.17381771 87.10677769 43.8125 87.625 C31.64416052 87.26466193 22.46444912 78.25435212 13.19921875 71.171875 C9.07708707 68.03394667 4.86820907 65.03382755 0.625 62.0625 C-5.45434919 57.79414063 -11.52414866 53.513754 -17.5625 49.1875 C-18.65087158 48.41515015 -18.65087158 48.41515015 -19.76123047 47.62719727 C-35.89575669 36.03318044 -35.89575669 36.03318044 -38 28 C-39.03199551 18.42735203 -37.90169053 11.44724021 -31.875 3.8125 C-22.62924675 -6.16981221 -11.40780891 -5.94281774 0 0 Z " fill="#4184F2" transform="translate(43,100)"/>
<path d="M0 0 C2.46922697 0.8581161 4.12289714 2.00278485 6.19946289 3.58911133 C7.35853149 4.4635791 7.35853149 4.4635791 8.54101562 5.35571289 C9.35900635 5.97929687 10.17699707 6.60288086 11.01977539 7.24536133 C27.39658059 20.29755335 27.39658059 20.29755335 47.14477539 25.74536133 C44.06597131 29.02495698 40.69629051 31.62325555 37.01977539 34.18286133 C35.76666667 35.06495749 34.51408906 35.94780849 33.26196289 36.83129883 C32.59648437 37.30019531 31.93100586 37.7690918 31.24536133 38.25219727 C29.05588449 39.80854784 26.88375986 41.38672564 24.71508789 42.97192383 C-4.1350299 64.05256009 -4.1350299 64.05256009 -18.85522461 62.74536133 C-26.84064893 60.63117647 -31.77496355 54.30193669 -35.79272461 47.43286133 C-37.79332961 40.48958514 -37.88566497 34.23315971 -34.91772461 27.55786133 C-28.91555257 17.02512418 -17.39270451 10.68232887 -7.6184082 3.99291992 C-5.72631822 2.69271465 -5.72631822 2.69271465 -3.59350586 0.82739258 C-1.85522461 -0.25463867 -1.85522461 -0.25463867 0 0 Z " fill="#F7A900" transform="translate(180.855224609375,124.254638671875)"/>
<path d="M0 0 C2.3413198 1.32766394 2.3413198 1.32766394 5.05078125 2.296875 C7.90750722 3.49944865 8.10309043 4.48601539 9.32421875 7.25390625 C10.00484375 7.81078125 10.68546875 8.36765625 11.38671875 8.94140625 C16.7431615 15.33457986 14.6177787 28.30978705 14.07421875 36.19140625 C13.70177462 39.03003445 13.4435447 40.09327517 11.69921875 42.44140625 C10.91546875 43.03953125 10.13171875 43.63765625 9.32421875 44.25390625 C8.28639733 45.16102231 7.25155234 46.07154852 6.21875 46.984375 C1.53557437 51.01446715 -3.53468901 54.43776343 -8.62304688 57.9296875 C-14.05793318 61.62436027 -14.05793318 61.62436027 -18.67578125 66.25390625 C-18.67578125 67.24390625 -18.67578125 68.23390625 -18.67578125 69.25390625 C-16.43980015 71.10294743 -14.24924276 72.74751976 -11.86328125 74.37890625 C-11.22068359 74.83394531 -10.57808594 75.28898437 -9.91601562 75.7578125 C-7.13680691 77.69893859 -4.92071472 79.17226176 -1.67578125 80.25390625 C0.01419198 81.89693578 1.67638269 83.56861937 3.32421875 85.25390625 C5.05648841 86.73704049 6.80863943 88.190433 8.578125 89.62890625 C13.56158235 94.2667547 14.86670484 97.39186324 15.2265625 104.12304688 C15.25878906 105.09435547 15.29101562 106.06566406 15.32421875 107.06640625 C15.38738281 108.02611328 15.45054688 108.98582031 15.515625 109.97460938 C15.7814064 116.25476675 15.08358452 121.07883787 11.32421875 126.25390625 C9.01171875 127.87890625 9.01171875 127.87890625 6.32421875 129.25390625 C5.20447199 130.23642914 4.10158971 131.23834467 3.01171875 132.25390625 C-3.86865947 138.16397472 -10.36616879 138.74260245 -19.32421875 138.55078125 C-25.09039771 138.04002414 -29.57556325 135.89846373 -34.67578125 133.25390625 C-35.66578125 132.92390625 -36.65578125 132.59390625 -37.67578125 132.25390625 C-38.00578125 131.26390625 -38.33578125 130.27390625 -38.67578125 129.25390625 C-40.59244792 128.08723958 -40.59244792 128.08723958 -42.67578125 127.25390625 C-44.67578125 126.25390625 -44.67578125 126.25390625 -46.73828125 124.078125 C-50.2805143 120.46727413 -54.47652977 117.84940859 -58.67578125 115.06640625 C-65.55694073 110.43672538 -72.21916313 105.65386072 -78.7421875 100.53515625 C-81.65511208 98.26997921 -84.6181252 96.09631047 -87.61328125 93.94140625 C-91.44079665 91.17801813 -95.12309718 88.36250481 -98.67578125 85.25390625 C-99.27390625 84.80015625 -99.87203125 84.34640625 -100.48828125 83.87890625 C-104.00527255 79.06618131 -102.89385299 70.32810113 -102.92578125 64.62890625 C-102.94640625 63.70078125 -102.96703125 62.77265625 -102.98828125 61.81640625 C-103.01678967 56.8416872 -103.02787835 53.24062368 -99.67578125 49.25390625 C-98.68578125 48.75890625 -98.68578125 48.75890625 -97.67578125 48.25390625 C-97.34578125 47.26390625 -97.01578125 46.27390625 -96.67578125 45.25390625 C-95.87140625 44.94453125 -95.06703125 44.63515625 -94.23828125 44.31640625 C-91.52459708 43.52360602 -91.52459708 43.52360602 -90.67578125 41.19140625 C-90.34578125 40.55203125 -90.01578125 39.91265625 -89.67578125 39.25390625 C-88.99773437 39.17011719 -88.3196875 39.08632812 -87.62109375 39 C-83.18151583 37.87538543 -80.1266646 35.16014886 -76.55078125 32.37890625 C-75.83535156 31.83621094 -75.11992188 31.29351562 -74.3828125 30.734375 C-68.75716437 26.69098043 -68.75716437 26.69098043 -64.67578125 21.25390625 C-63.60070313 21.07988281 -63.60070313 21.07988281 -62.50390625 20.90234375 C-58.74202398 20.03981273 -56.4856724 18.20773966 -53.42578125 15.87890625 C-52.61367187 15.27949219 -52.61367187 15.27949219 -51.78515625 14.66796875 C-49.06470335 12.60042454 -47.78003753 11.56667509 -46.67578125 8.25390625 C-45.96164063 8.16882812 -45.2475 8.08375 -44.51171875 7.99609375 C-41.06571307 7.09424653 -39.09919555 5.56792374 -36.30078125 3.37890625 C-24.62295642 -5.38338111 -13.03175668 -7.21593138 0 0 Z M-36.48828125 9.62890625 C-37.2167627 10.15129883 -37.94524414 10.67369141 -38.69580078 11.21191406 C-41.02714236 12.88618241 -43.35155999 14.56977158 -45.67578125 16.25390625 C-47.24962969 17.38723318 -48.82384767 18.52004711 -50.3984375 19.65234375 C-54.15891335 22.35907066 -57.91171522 25.07620339 -61.66210938 27.796875 C-63.52192426 29.14258005 -65.38661069 30.48110976 -67.25390625 31.81640625 C-68.259375 32.53828125 -69.26484375 33.26015625 -70.30078125 34.00390625 C-71.15929687 34.6175 -72.0178125 35.23109375 -72.90234375 35.86328125 C-73.78019531 36.55164063 -73.78019531 36.55164063 -74.67578125 37.25390625 C-74.67578125 37.58390625 -74.67578125 37.91390625 -74.67578125 38.25390625 C-73.92554687 38.32867187 -73.1753125 38.4034375 -72.40234375 38.48046875 C-64.43477228 39.50401068 -59.18158711 41.63743429 -52.67578125 46.25390625 C-51.99112793 46.73923828 -51.30647461 47.22457031 -50.60107422 47.72460938 C-45.96725188 51.02003378 -41.36670374 54.3589455 -36.77978516 57.71923828 C-33.76152997 59.9207644 -30.72010462 62.08860605 -27.67578125 64.25390625 C-24.89511175 62.93038304 -22.39723621 61.45534547 -19.8828125 59.6796875 C-19.17415039 59.18041748 -18.46548828 58.68114746 -17.73535156 58.16674805 C-16.62305176 57.37457886 -16.62305176 57.37457886 -15.48828125 56.56640625 C-14.72741211 56.0247583 -13.96654297 55.48311035 -13.18261719 54.92504883 C-11.01017509 53.37280691 -8.84242485 51.81422678 -6.67578125 50.25390625 C-5.70511719 49.56039062 -4.73445313 48.866875 -3.734375 48.15234375 C2.1862562 43.76446479 7.4363642 38.63370131 9.32421875 31.25390625 C10.2779422 23.06655722 8.73996387 15.85435284 3.78125 9.17578125 C-0.9573816 4.01425117 -5.65269626 1.6347583 -12.60546875 0.9765625 C-22.5742628 0.66581456 -28.65182981 3.92327352 -36.48828125 9.62890625 Z M10.32421875 39.25390625 C11.32421875 41.25390625 11.32421875 41.25390625 11.32421875 41.25390625 Z M-94.30078125 53.09375 C-98.45779714 59.62451643 -98.38269559 66.77163106 -97.67578125 74.25390625 C-94.77447614 85.91754224 -81.47626976 92.65522262 -72.26953125 99.05078125 C-67.72018712 102.21133751 -63.22404287 105.44145775 -58.73828125 108.69140625 C-57.99916504 109.22531982 -57.26004883 109.7592334 -56.49853516 110.30932617 C-52.60727162 113.12212007 -48.72620161 115.94807886 -44.85546875 118.7890625 C-44.06132568 119.36922119 -43.26718262 119.94937988 -42.44897461 120.54711914 C-40.94666986 121.64491495 -39.44723401 122.74665334 -37.95141602 123.85327148 C-28.65179945 130.63507845 -21.55137615 135.02659821 -9.67578125 133.25390625 C-1.11610678 130.58488687 3.8765952 125.5780412 8.19921875 117.94140625 C10.45671781 110.54182599 10.01174352 103.74880634 6.8125 96.6796875 C0.98477256 87.18095065 -10.37503024 81.08920265 -19.37744141 74.85839844 C-23.23984604 72.16201823 -27.05044975 69.39472664 -30.86328125 66.62890625 C-32.36576065 65.54149425 -33.86836288 64.45425195 -35.37109375 63.3671875 C-36.09329102 62.84463379 -36.81548828 62.32208008 -37.55957031 61.78369141 C-42.91295183 57.91379194 -48.28010801 54.06464355 -53.67578125 50.25390625 C-54.98869141 49.32384766 -54.98869141 49.32384766 -56.328125 48.375 C-69.9372924 38.97765479 -83.38156231 40.31091436 -94.30078125 53.09375 Z M-101.67578125 54.25390625 C-100.67578125 56.25390625 -100.67578125 56.25390625 -100.67578125 56.25390625 Z M-101.67578125 78.25390625 C-100.67578125 80.25390625 -100.67578125 80.25390625 -100.67578125 80.25390625 Z M13.32421875 116.25390625 C14.32421875 118.25390625 14.32421875 118.25390625 14.32421875 118.25390625 Z M12.32421875 118.25390625 C13.32421875 120.25390625 13.32421875 120.25390625 13.32421875 120.25390625 Z " fill="#1E1E1F" transform="translate(102.67578125,53.74609375)"/>
<path d="M0 0 C0.77923828 0.81984375 0.77923828 0.81984375 1.57421875 1.65625 C5.03729204 5.00221453 8.90348594 7.69922794 12.8125 10.5 C13.59431641 11.06847656 14.37613281 11.63695313 15.18164062 12.22265625 C23.11758184 17.9793808 23.11758184 17.9793808 32 22 C32.495 23.485 32.495 23.485 33 25 C34.485 25.495 34.485 25.495 36 26 C37.485 26.495 37.485 26.495 39 27 C39.33 27.99 39.66 28.98 40 30 C41.91666667 31.16666667 41.91666667 31.16666667 44 32 C46 33 46 33 48.25 35.4375 C50.81536533 38.18364879 50.81536533 38.18364879 54.1875 39.0625 C57 40 57 40 58.125 42.0625 C58.41375 42.701875 58.7025 43.34125 59 44 C59.66 44.165 60.32 44.33 61 44.5 C61.66 44.665 62.32 44.83 63 45 C64.125 47 64.125 47 65 49 C65.66 49.33 66.32 49.66 67 50 C67.38932033 51.98985949 67.71887936 53.99199544 68 56 C68.33 56.99 68.66 57.98 69 59 C69.82446884 76.06458755 69.82446884 76.06458755 67 84 C65.36671709 85.05364354 63.69597501 86.05055461 62 87 C60.76456422 88.09516796 59.55740745 89.22278168 58.375 90.375 C53.06407307 95.2063449 47.17746597 99.07073176 41.23413086 103.06640625 C35.26607296 107.0922037 29.5454311 111.32209014 23.890625 115.7734375 C20.27758251 118.55645671 16.53342983 121.10984609 12.73046875 123.625 C12.15941406 124.07875 11.58835938 124.5325 11 125 C11 125.66 11 126.32 11 127 C10.11248047 127.1846582 10.11248047 127.1846582 9.20703125 127.37304688 C5.73903459 128.35820345 2.95832371 130.50096536 0 132.5 C-8.387158 138.16747288 -14.87563904 138.76616786 -25 138 C-31.65800794 136.50846246 -36.07120197 133.60134811 -40.52734375 128.48828125 C-42.03965871 126.73570974 -42.03965871 126.73570974 -45 126 C-49.10796899 120.54868105 -48.47886051 115.11626078 -48.4375 108.5625 C-48.45748047 107.44294922 -48.47746094 106.32339844 -48.49804688 105.16992188 C-48.49430875 98.87118196 -48.43562679 94.66949112 -44 90 C-42.01171875 88.83984375 -42.01171875 88.83984375 -40 88 C-38.56909175 86.89828029 -37.17331861 85.74970573 -35.8125 84.5625 C-35.11769531 83.96566406 -34.42289063 83.36882812 -33.70703125 82.75390625 C-31.76139663 81.00928915 -31.76139663 81.00928915 -31 78 C-30.29488281 77.91878906 -29.58976562 77.83757812 -28.86328125 77.75390625 C-25.29937802 76.81552518 -23.11492136 75.15951862 -20.1875 72.9375 C-18.72376953 71.83728516 -18.72376953 71.83728516 -17.23046875 70.71484375 C-16.49441406 70.14894531 -15.75835937 69.58304687 -15 69 C-14.88258044 66.69400597 -14.88258044 66.69400597 -16 64 C-18.44960231 61.74645961 -21.21497645 59.99919968 -24 58.1875 C-29.82249945 54.26153076 -35.25969086 50.30989904 -40.3359375 45.42578125 C-42.05374893 43.77257379 -42.05374893 43.77257379 -45 43 C-47.14130869 38.19144716 -47.63614872 33.18013759 -48.1875 28 C-48.28224609 27.21882813 -48.37699219 26.43765625 -48.47460938 25.6328125 C-49.21195802 18.94601717 -49.04538538 13.66353953 -45 8 C-44.34 7.67 -43.68 7.34 -43 7 C-42.690625 6.38125 -42.38125 5.7625 -42.0625 5.125 C-40.92291836 2.84583672 -40.00919307 1.56270572 -38 0 C-36.34080104 -0.36871088 -34.67225729 -0.69595322 -33 -1 C-31.865625 -1.495 -30.73125 -1.99 -29.5625 -2.5 C-19.463494 -6.75221305 -9.562432 -4.781216 0 0 Z M-37.875 9.9375 C-42.53386179 15.6469935 -43.53924323 20.84511644 -43.37109375 28.125 C-42.40042568 35.64512318 -38.48883145 41.37833359 -32.6640625 46.046875 C-27.69957726 49.68652693 -22.6798266 53.24315491 -17.62890625 56.76171875 C-13.07171015 59.9391692 -8.56172803 63.17865818 -4.0625 66.4375 C-3.32418945 66.97133301 -2.58587891 67.50516602 -1.82519531 68.05517578 C2.07312116 70.87532446 5.96605611 73.70274228 9.85546875 76.53515625 C10.65412354 77.11531494 11.45277832 77.69547363 12.27563477 78.29321289 C13.78948382 79.393007 15.30181231 80.4948987 16.81225586 81.59936523 C25.6338192 88.58964089 25.6338192 88.58964089 36 92 C37.2375 92.103125 38.475 92.20625 39.75 92.3125 C46.95323716 92.19041123 53.3311607 88.52083971 58.4921875 83.671875 C64.03719858 77.52352074 64.65827957 71.49897687 64.37109375 63.3359375 C63.50341406 55.53595376 59.9051 51.27266623 54.00390625 46.32421875 C47.14654556 41.01845853 40.07224963 36.01335916 33 31 C31.21894335 29.7301089 29.43924426 28.45834091 27.65991211 27.18603516 C26.55348833 26.39547673 25.44622826 25.60608744 24.33813477 24.81787109 C21.03737377 22.46798372 17.75491512 20.09493058 14.484375 17.703125 C-11.23419176 -1.60916244 -11.23419176 -1.60916244 -37.875 9.9375 Z M-47 13 C-46 15 -46 15 -46 15 Z M-48 16 C-47 19 -47 19 -47 19 Z M-12.1328125 72.81640625 C-12.93976563 73.41646484 -13.74671875 74.01652344 -14.578125 74.63476562 C-15.41859375 75.27091797 -16.2590625 75.90707031 -17.125 76.5625 C-17.94226563 77.17158203 -18.75953125 77.78066406 -19.6015625 78.40820312 C-34.2907394 88.27490112 -34.2907394 88.27490112 -43 103 C-44.13492231 111.03080897 -42.69096623 117.36949965 -38 124 C-33.48394287 128.91667511 -28.98247652 132.57703353 -22.16796875 133.30078125 C-21.18441406 133.30464844 -20.20085937 133.30851562 -19.1875 133.3125 C-18.21167969 133.32925781 -17.23585937 133.34601563 -16.23046875 133.36328125 C-8.29537842 132.4709434 -2.63337565 128.65864673 3.625 123.9375 C5.21588134 122.7626626 6.80702997 121.58818704 8.3984375 120.4140625 C9.17799805 119.83430664 9.95755859 119.25455078 10.76074219 118.65722656 C13.89637493 116.33661219 17.06973741 114.07134399 20.25 111.8125 C21.36202308 111.01829065 22.4740024 110.22402002 23.5859375 109.4296875 C26.04407586 107.67716589 28.50905978 105.93462138 30.9765625 104.1953125 C31.62850586 103.73406982 32.28044922 103.27282715 32.95214844 102.79760742 C34.21126547 101.90698515 35.4722677 101.0190207 36.73535156 100.1340332 C38.17481064 99.11417437 39.59024013 98.06053364 41 97 C41 96.67 41 96.34 41 96 C40.26136719 95.93683594 39.52273437 95.87367188 38.76171875 95.80859375 C30.21114895 94.77644111 24.8849925 92.02100672 18 87 C16.49555658 85.9286126 14.99028119 84.85839291 13.484375 83.7890625 C1.30060271 75.09214994 1.30060271 75.09214994 -2.8515625 71.60546875 C-6.69352776 68.73447289 -8.68658335 70.23307847 -12.1328125 72.81640625 Z M-47 118 C-46 120 -46 120 -46 120 Z " fill="#1E1F1D" transform="translate(187,54)"/>
<path d="M0 0 C1.26582219 3.86723631 1.1118765 7.73151262 1.0625 11.75 C1.05798828 12.44738281 1.05347656 13.14476562 1.04882812 13.86328125 C1.0371002 15.57555803 1.01916653 17.28779033 1 19 C-1.38981361 15.41527958 -1.24010257 13.74646235 -1.1875 9.5 C-1.18105469 8.3553125 -1.17460937 7.210625 -1.16796875 6.03125 C-1 3 -1 3 0 0 Z " fill="#0D0D0D" transform="translate(138,153)"/>
<path d="M0 0 C0.33 0 0.66 0 1 0 C1.33 5.28 1.66 10.56 2 16 C-0.42130331 12.36804504 -0.21022785 10.61650652 -0.125 6.3125 C-0.09792969 4.54326172 -0.09792969 4.54326172 -0.0703125 2.73828125 C-0.04710937 1.83464844 -0.02390625 0.93101563 0 0 Z " fill="#060606" transform="translate(137,73)"/>
<path d="M0 0 C0.66 0.33 1.32 0.66 2 1 C-1.625 5.875 -1.625 5.875 -5 7 C-3.70700306 4.11562221 -2.34058637 2.12780579 0 0 Z " fill="#000000" transform="translate(149,54)"/>
<path d="M0 0 C4.62 0 9.24 0 14 0 C14 0.33 14 0.66 14 1 C9.38 1 4.76 1 0 1 C0 0.67 0 0.34 0 0 Z " fill="#000000" transform="translate(162,193)"/>
<path d="M0 0 C4.62 0 9.24 0 14 0 C14 0.33 14 0.66 14 1 C9.38 1 4.76 1 0 1 C0 0.67 0 0.34 0 0 Z " fill="#000000" transform="translate(80,193)"/>
<path d="M0 0 C0 0.99 0 1.98 0 3 C-2 4.6875 -2 4.6875 -4 6 C-4.66 5.34 -5.32 4.68 -6 4 C-4.02 2.68 -2.04 1.36 0 0 Z " fill="#21262F" transform="translate(104,180)"/>
<path d="M0 0 C1.2065625 0.0309375 1.2065625 0.0309375 2.4375 0.0625 C1.1175 1.3825 -0.2025 2.7025 -1.5625 4.0625 C-2.2225 3.0725 -2.8825 2.0825 -3.5625 1.0625 C-2.5625 0.0625 -2.5625 0.0625 0 0 Z " fill="#D59505" transform="translate(225.5625,149.9375)"/>
<path d="M0 0 C0.625 1.8125 0.625 1.8125 1 4 C0.01 5.485 0.01 5.485 -1 7 C-1.66 7 -2.32 7 -3 7 C-1.125 2.25 -1.125 2.25 0 0 Z " fill="#3E7CE1" transform="translate(9,106)"/>
<path d="M0 0 C0.66 1.32 1.32 2.64 2 4 C1.01 4.99 0.02 5.98 -1 7 C-1.33 6.34 -1.66 5.68 -2 5 C-1.0625 2.375 -1.0625 2.375 0 0 Z " fill="#2C201F" transform="translate(110,87)"/>
<path d="M0 0 C0.33 0 0.66 0 1 0 C1 3.63 1 7.26 1 11 C0.67 11 0.34 11 0 11 C0 7.37 0 3.74 0 0 Z " fill="#000000" transform="translate(118,157)"/>
<path d="M0 0 C0.66 0.33 1.32 0.66 2 1 C-0.97 3.475 -0.97 3.475 -4 6 C-2.84826645 3.53199953 -1.95216435 1.95216435 0 0 Z " fill="#000000" transform="translate(148,138)"/>
<path d="M0 0 C0.33 0 0.66 0 1 0 C1 3.63 1 7.26 1 11 C0.67 11 0.34 11 0 11 C0 7.37 0 3.74 0 0 Z " fill="#000000" transform="translate(118,74)"/>
<path d="M0 0 C1.32 0.99 2.64 1.98 4 3 C3.67 3.66 3.34 4.32 3 5 C1.68 3.68 0.36 2.36 -1 1 C-0.67 0.67 -0.34 0.34 0 0 Z " fill="#000000" transform="translate(108,56)"/>
<path d="M0 0 C0.99 0.99 1.98 1.98 3 3 C2.67 3.99 2.34 4.98 2 6 C0 2.25 0 2.25 0 0 Z " fill="#000000" transform="translate(114,147)"/>
<path d="M0 0 C0.66 0.66 1.32 1.32 2 2 C1.01 2.66 0.02 3.32 -1 4 C-1.66 3.34 -2.32 2.68 -3 2 C-2.01 1.34 -1.02 0.68 0 0 Z " fill="#2E291B" transform="translate(193,175)"/>
<path d="M0 0 C1.98 0.99 1.98 0.99 4 2 C4 2.99 4 3.98 4 5 C2.68 3.35 1.36 1.7 0 0 Z " fill="#000000" transform="translate(106,138)"/>
<path d="M0 0 C0.99 0.33 1.98 0.66 3 1 C2.67 2.32 2.34 3.64 2 5 C1.34 3.35 0.68 1.7 0 0 Z " fill="#3E7ADE" transform="translate(7,131)"/>
<path d="M0 0 C0.66 0.66 1.32 1.32 2 2 C1.01 2.66 0.02 3.32 -1 4 C-1.66 3.34 -2.32 2.68 -3 2 C-2.01 1.34 -1.02 0.68 0 0 Z " fill="#2D201F" transform="translate(93,105)"/>
<path d="M0 0 C1.32 1.32 2.64 2.64 4 4 C2.68 3.34 1.36 2.68 0 2 C0 1.34 0 0.68 0 0 Z " fill="#000000" transform="translate(145,182)"/>
<path d="M0 0 C0 0.99 0 1.98 0 3 C-0.99 3 -1.98 3 -3 3 C-2.01 2.01 -1.02 1.02 0 0 Z " fill="#000000" transform="translate(110,182)"/>
<path d="M0 0 C1.98 0 3.96 0 6 0 C6 0.33 6 0.66 6 1 C4.02 1 2.04 1 0 1 C0 0.67 0 0.34 0 0 Z " fill="#000000" transform="translate(171,48)"/>
<path d="M0 0 C1.98 0 3.96 0 6 0 C6 0.33 6 0.66 6 1 C4.02 1 2.04 1 0 1 C0 0.67 0 0.34 0 0 Z " fill="#000000" transform="translate(161,48)"/>
<path d="M0 0 C1.98 0 3.96 0 6 0 C6 0.33 6 0.66 6 1 C4.02 1 2.04 1 0 1 C0 0.67 0 0.34 0 0 Z " fill="#000000" transform="translate(89,48)"/>
<path d="M0 0 C1.98 0 3.96 0 6 0 C6 0.33 6 0.66 6 1 C4.02 1 2.04 1 0 1 C0 0.67 0 0.34 0 0 Z " fill="#000000" transform="translate(79,48)"/>
<path d="M0 0 C0.99 0.99 1.98 1.98 3 3 C2.01 2.67 1.02 2.34 0 2 C0 1.34 0 0.68 0 0 Z " fill="#000000" transform="translate(145,99)"/>
<path d="M0 0 C1 4 1 4 1 4 Z " fill="#000000" transform="translate(117,153)"/>
<path d="M0 0 C1 4 1 4 1 4 Z " fill="#000000" transform="translate(117,85)"/>
<path d="M0 0 C0.66 0.33 1.32 0.66 2 1 C1.01 1 0.02 1 -1 1 C-0.67 0.67 -0.34 0.34 0 0 Z " fill="#000000" transform="translate(24,85)"/>
<path d="M0 0 C1 4 1 4 1 4 Z " fill="#000000" transform="translate(117,70)"/>
<path d="M0 0 C4 1 4 1 4 1 Z " fill="#000000" transform="translate(167,47)"/>
<path d="M0 0 C4 1 4 1 4 1 Z " fill="#000000" transform="translate(85,47)"/>
<path d="M0 0 C3 1 3 1 3 1 Z " fill="#000000" transform="translate(158,192)"/>
<path d="M0 0 C3 1 3 1 3 1 Z " fill="#000000" transform="translate(95,192)"/>
<path d="M0 0 C3 1 3 1 3 1 Z " fill="#000000" transform="translate(77,192)"/>
<path d="M0 0 C0.66 0.66 1.32 1.32 2 2 C1.34 2 0.68 2 0 2 C0 1.34 0 0.68 0 0 Z " fill="#000000" transform="translate(7,142)"/>
<path d="M0 0 C0.33 0.66 0.66 1.32 1 2 C0.34 1.67 -0.32 1.34 -1 1 C-0.67 0.67 -0.34 0.34 0 0 Z " fill="#000000" transform="translate(248,142)"/>
<path d="" fill="#000000" transform="translate(0,0)"/>
<path d="M0 0 C3 1 3 1 3 1 Z " fill="#000000" transform="translate(177,49)"/>
<path d="M0 0 C3 1 3 1 3 1 Z " fill="#000000" transform="translate(95,49)"/>
<path d="M0 0 C3 1 3 1 3 1 Z " fill="#000000" transform="translate(76,49)"/>
<path d="M0 0 C2 1 2 1 2 1 Z " fill="#000000" transform="translate(177,192)"/>
<path d="M0 0 C2 1 2 1 2 1 Z " fill="#000000" transform="translate(180,191)"/>
<path d="M0 0 C2 1 2 1 2 1 Z " fill="#000000" transform="translate(156,191)"/>
<path d="M0 0 C2 1 2 1 2 1 Z " fill="#000000" transform="translate(98,191)"/>
<path d="M0 0 C2 1 2 1 2 1 Z " fill="#000000" transform="translate(74,191)"/>
<path d="M0 0 C2 1 2 1 2 1 Z " fill="#000000" transform="translate(182,190)"/>
<path d="M0 0 C2 1 2 1 2 1 Z " fill="#000000" transform="translate(154,190)"/>
<path d="M0 0 C2 1 2 1 2 1 Z " fill="#000000" transform="translate(100,190)"/>
<path d="M0 0 C2 1 2 1 2 1 Z " fill="#000000" transform="translate(72,190)"/>
<path d="M0 0 C2 1 2 1 2 1 Z " fill="#000000" transform="translate(152,189)"/>
<path d="M0 0 C2 1 2 1 2 1 Z " fill="#000000" transform="translate(102,189)"/>
<path d="M0 0 C2 1 2 1 2 1 Z " fill="#000000" transform="translate(185,188)"/>
<path d="M0 0 C2 1 2 1 2 1 Z " fill="#000000" transform="translate(69,188)"/>
<path d="M0 0 C2 1 2 1 2 1 Z " fill="#000000" transform="translate(189,185)"/>
<path d="M0 0 C2 1 2 1 2 1 Z " fill="#000000" transform="translate(192,183)"/>
<path d="M0 0 C2 1 2 1 2 1 Z " fill="#000000" transform="translate(62,183)"/>
<path d="M0 0 C2 1 2 1 2 1 Z " fill="#000000" transform="translate(199,178)"/>
<path d="M0 0 C2 1 2 1 2 1 Z " fill="#000000" transform="translate(55,178)"/>
<path d="M0 0 C2 1 2 1 2 1 Z " fill="#000000" transform="translate(203,175)"/>
<path d="M0 0 C2 1 2 1 2 1 Z " fill="#000000" transform="translate(51,175)"/>
<path d="M0 0 C2 1 2 1 2 1 Z " fill="#000000" transform="translate(206,173)"/>
<path d="M0 0 C2 1 2 1 2 1 Z " fill="#000000" transform="translate(48,173)"/>
<path d="M0 0 C2 1 2 1 2 1 Z " fill="#000000" transform="translate(210,170)"/>
<path d="M0 0 C2 1 2 1 2 1 Z " fill="#000000" transform="translate(44,170)"/>
<path d="M0 0 C2 1 2 1 2 1 Z " fill="#000000" transform="translate(213,168)"/>
<path d="M0 0 C2 1 2 1 2 1 Z " fill="#000000" transform="translate(41,168)"/>
<path d="M0 0 C2 1 2 1 2 1 Z " fill="#000000" transform="translate(217,165)"/>
<path d="M0 0 C2 1 2 1 2 1 Z " fill="#000000" transform="translate(37,165)"/>
<path d="M0 0 C2 1 2 1 2 1 Z " fill="#000000" transform="translate(34,163)"/>
<path d="M0 0 C2 1 2 1 2 1 Z " fill="#000000" transform="translate(221,162)"/>
<path d="M0 0 C2 1 2 1 2 1 Z " fill="#000000" transform="translate(224,160)"/>
<path d="M0 0 C2 1 2 1 2 1 Z " fill="#000000" transform="translate(30,160)"/>
<path d="M0 0 C2 1 2 1 2 1 Z " fill="#000000" transform="translate(228,157)"/>
<path d="M0 0 C2 1 2 1 2 1 Z " fill="#000000" transform="translate(26,157)"/>
<path d="M0 0 C2 1 2 1 2 1 Z " fill="#000000" transform="translate(231,155)"/>
<path d="M0 0 C2 1 2 1 2 1 Z " fill="#000000" transform="translate(23,155)"/>
<path d="M0 0 C2 1 2 1 2 1 Z " fill="#000000" transform="translate(235,152)"/>
<path d="M0 0 C2 1 2 1 2 1 Z " fill="#000000" transform="translate(19,152)"/>
<path d="M0 0 C2 1 2 1 2 1 Z " fill="#000000" transform="translate(238,150)"/>
<path d="M0 0 C2 1 2 1 2 1 Z " fill="#000000" transform="translate(16,150)"/>
<path d="M0 0 C2 1 2 1 2 1 Z " fill="#000000" transform="translate(242,147)"/>
<path d="M0 0 C2 1 2 1 2 1 Z " fill="#000000" transform="translate(12,147)"/>
<path d="M0 0 C2 1 2 1 2 1 Z " fill="#000000" transform="translate(152,135)"/>
<path d="M0 0 C2 1 2 1 2 1 Z " fill="#000000" transform="translate(102,135)"/>
<path d="" fill="#000000" transform="translate(0,0)"/>
<path d="M0 0 C2 1 2 1 2 1 Z " fill="#000000" transform="translate(159,130)"/>
<path d="M0 0 C2 1 2 1 2 1 Z " fill="#000000" transform="translate(95,130)"/>
<path d="M0 0 C2 1 2 1 2 1 Z " fill="#000000" transform="translate(163,127)"/>
<path d="M0 0 C2 1 2 1 2 1 Z " fill="#000000" transform="translate(91,127)"/>
<path d="M0 0 C2 1 2 1 2 1 Z " fill="#000000" transform="translate(166,125)"/>
<path d="M0 0 C2 1 2 1 2 1 Z " fill="#000000" transform="translate(88,125)"/>
<path d="M0 0 C2 1 2 1 2 1 Z " fill="#000000" transform="translate(170,122)"/>
<path d="M0 0 C2 1 2 1 2 1 Z " fill="#000000" transform="translate(84,122)"/>
<path d="M0 0 C2 1 2 1 2 1 Z " fill="#000000" transform="translate(169,118)"/>
<path d="M0 0 C2 1 2 1 2 1 Z " fill="#000000" transform="translate(85,118)"/>
<path d="M0 0 C2 1 2 1 2 1 Z " fill="#000000" transform="translate(166,116)"/>
<path d="M0 0 C2 1 2 1 2 1 Z " fill="#000000" transform="translate(89,115)"/>
<path d="M0 0 C2 1 2 1 2 1 Z " fill="#000000" transform="translate(162,113)"/>
<path d="M0 0 C2 1 2 1 2 1 Z " fill="#000000" transform="translate(92,113)"/>
<path d="M0 0 C2 1 2 1 2 1 Z " fill="#000000" transform="translate(158,110)"/>
<path d="M0 0 C2 1 2 1 2 1 Z " fill="#000000" transform="translate(96,110)"/>
<path d="" fill="#000000" transform="translate(0,0)"/>
<path d="M0 0 C2 1 2 1 2 1 Z " fill="#000000" transform="translate(155,108)"/>
<path d="M0 0 C2 1 2 1 2 1 Z " fill="#000000" transform="translate(99,108)"/>
<path d="" fill="#000000" transform="translate(0,0)"/>
<path d="M0 0 C2 1 2 1 2 1 Z " fill="#000000" transform="translate(151,105)"/>
<path d="M0 0 C2 1 2 1 2 1 Z " fill="#000000" transform="translate(103,105)"/>
<path d="M0 0 C2 1 2 1 2 1 Z " fill="#000000" transform="translate(246,97)"/>
<path d="M0 0 C2 1 2 1 2 1 Z " fill="#000000" transform="translate(8,97)"/>
<path d="M0 0 C2 1 2 1 2 1 Z " fill="#000000" transform="translate(238,91)"/>
<path d="M0 0 C2 1 2 1 2 1 Z " fill="#000000" transform="translate(16,91)"/>
<path d="" fill="#000000" transform="translate(0,0)"/>
<path d="" fill="#000000" transform="translate(0,0)"/>
<path d="M0 0 C2 1 2 1 2 1 Z " fill="#000000" transform="translate(234,88)"/>
<path d="M0 0 C2 1 2 1 2 1 Z " fill="#000000" transform="translate(20,88)"/>
<path d="M0 0 C2 1 2 1 2 1 Z " fill="#000000" transform="translate(227,83)"/>
<path d="M0 0 C2 1 2 1 2 1 Z " fill="#000000" transform="translate(27,83)"/>
<path d="M0 0 C2 1 2 1 2 1 Z " fill="#000000" transform="translate(31,80)"/>
<path d="M0 0 C2 1 2 1 2 1 Z " fill="#000000" transform="translate(220,78)"/>
<path d="M0 0 C2 1 2 1 2 1 Z " fill="#000000" transform="translate(34,78)"/>
<path d="M0 0 C2 1 2 1 2 1 Z " fill="#000000" transform="translate(213,73)"/>
<path d="M0 0 C2 1 2 1 2 1 Z " fill="#000000" transform="translate(41,73)"/>
<path d="M0 0 C2 1 2 1 2 1 Z " fill="#000000" transform="translate(209,70)"/>
<path d="M0 0 C2 1 2 1 2 1 Z " fill="#000000" transform="translate(45,70)"/>
<path d="M0 0 C2 1 2 1 2 1 Z " fill="#000000" transform="translate(206,68)"/>
<path d="M0 0 C2 1 2 1 2 1 Z " fill="#000000" transform="translate(48,68)"/>
<path d="M0 0 C2 1 2 1 2 1 Z " fill="#000000" transform="translate(202,65)"/>
<path d="M0 0 C2 1 2 1 2 1 Z " fill="#000000" transform="translate(52,65)"/>
<path d="M0 0 C2 1 2 1 2 1 Z " fill="#000000" transform="translate(199,63)"/>
<path d="M0 0 C2 1 2 1 2 1 Z " fill="#000000" transform="translate(195,60)"/>
<path d="M0 0 C2 1 2 1 2 1 Z " fill="#000000" transform="translate(59,60)"/>
<path d="M0 0 C2 1 2 1 2 1 Z " fill="#000000" transform="translate(191,57)"/>
<path d="M0 0 C2 1 2 1 2 1 Z " fill="#000000" transform="translate(63,57)"/>
<path d="M0 0 C2 1 2 1 2 1 Z " fill="#000000" transform="translate(188,55)"/>
<path d="M0 0 C2 1 2 1 2 1 Z " fill="#000000" transform="translate(106,55)"/>
<path d="M0 0 C2 1 2 1 2 1 Z " fill="#000000" transform="translate(66,55)"/>
<path d="M0 0 C2 1 2 1 2 1 Z " fill="#000000" transform="translate(152,52)"/>
<path d="M0 0 C2 1 2 1 2 1 Z " fill="#000000" transform="translate(102,52)"/>
<path d="M0 0 C2 1 2 1 2 1 Z " fill="#000000" transform="translate(70,52)"/>
<path d="M0 0 C2 1 2 1 2 1 Z " fill="#000000" transform="translate(182,51)"/>
<path d="M0 0 C2 1 2 1 2 1 Z " fill="#000000" transform="translate(154,51)"/>
<path d="M0 0 C2 1 2 1 2 1 Z " fill="#000000" transform="translate(100,51)"/>
<path d="M0 0 C2 1 2 1 2 1 Z " fill="#000000" transform="translate(72,51)"/>
<path d="M0 0 C2 1 2 1 2 1 Z " fill="#000000" transform="translate(180,50)"/>
<path d="M0 0 C2 1 2 1 2 1 Z " fill="#000000" transform="translate(156,50)"/>
<path d="M0 0 C2 1 2 1 2 1 Z " fill="#000000" transform="translate(98,50)"/>
<path d="M0 0 C2 1 2 1 2 1 Z " fill="#000000" transform="translate(74,50)"/>
<path d="M0 0 C2 1 2 1 2 1 Z " fill="#000000" transform="translate(158,49)"/>
<path d="" fill="#000000" transform="translate(0,0)"/>
<path d="" fill="#000000" transform="translate(0,0)"/>
<path d="" fill="#000000" transform="translate(0,0)"/>
<path d="" fill="#000000" transform="translate(0,0)"/>
<path d="" fill="#000000" transform="translate(0,0)"/>
<path d="" fill="#000000" transform="translate(0,0)"/>
<path d="" fill="#000000" transform="translate(0,0)"/>
<path d="" fill="#000000" transform="translate(0,0)"/>
<path d="" fill="#000000" transform="translate(0,0)"/>
<path d="" fill="#000000" transform="translate(0,0)"/>
<path d="" fill="#000000" transform="translate(0,0)"/>
<path d="" fill="#000000" transform="translate(0,0)"/>
<path d="" fill="#000000" transform="translate(0,0)"/>
<path d="" fill="#000000" transform="translate(0,0)"/>
<path d="" fill="#000000" transform="translate(0,0)"/>
<path d="" fill="#000000" transform="translate(0,0)"/>
<path d="" fill="#000000" transform="translate(0,0)"/>
<path d="" fill="#000000" transform="translate(0,0)"/>
<path d="" fill="#000000" transform="translate(0,0)"/>
<path d="" fill="#000000" transform="translate(0,0)"/>
<path d="" fill="#000000" transform="translate(0,0)"/>
<path d="" fill="#000000" transform="translate(0,0)"/>
<path d="" fill="#000000" transform="translate(0,0)"/>
<path d="" fill="#000000" transform="translate(0,0)"/>
<path d="" fill="#000000" transform="translate(0,0)"/>
<path d="" fill="#000000" transform="translate(0,0)"/>
<path d="" fill="#000000" transform="translate(0,0)"/>
<path d="" fill="#000000" transform="translate(0,0)"/>
<path d="" fill="#000000" transform="translate(0,0)"/>
<path d="" fill="#000000" transform="translate(0,0)"/>
<path d="" fill="#000000" transform="translate(0,0)"/>
<path d="" fill="#000000" transform="translate(0,0)"/>
<path d="" fill="#000000" transform="translate(0,0)"/>
<path d="" fill="#000000" transform="translate(0,0)"/>
<path d="" fill="#000000" transform="translate(0,0)"/>
<path d="" fill="#000000" transform="translate(0,0)"/>
<path d="" fill="#000000" transform="translate(0,0)"/>
<path d="" fill="#000000" transform="translate(0,0)"/>
<path d="" fill="#000000" transform="translate(0,0)"/>
<path d="" fill="#000000" transform="translate(0,0)"/>
<path d="" fill="#000000" transform="translate(0,0)"/>
<path d="" fill="#000000" transform="translate(0,0)"/>
<path d="" fill="#000000" transform="translate(0,0)"/>
<path d="" fill="#000000" transform="translate(0,0)"/>
<path d="" fill="#000000" transform="translate(0,0)"/>
<path d="" fill="#000000" transform="translate(0,0)"/>
<path d="" fill="#000000" transform="translate(0,0)"/>
<path d="" fill="#000000" transform="translate(0,0)"/>
<path d="" fill="#000000" transform="translate(0,0)"/>
<path d="" fill="#000000" transform="translate(0,0)"/>
<path d="" fill="#000000" transform="translate(0,0)"/>
<path d="" fill="#000000" transform="translate(0,0)"/>
<path d="" fill="#000000" transform="translate(0,0)"/>
<path d="" fill="#000000" transform="translate(0,0)"/>
<path d="" fill="#000000" transform="translate(0,0)"/>
<path d="" fill="#000000" transform="translate(0,0)"/>
<path d="" fill="#000000" transform="translate(0,0)"/>
<path d="" fill="#000000" transform="translate(0,0)"/>
<path d="" fill="#000000" transform="translate(0,0)"/>
<path d="" fill="#000000" transform="translate(0,0)"/>
<path d="" fill="#000000" transform="translate(0,0)"/>
<path d="" fill="#000000" transform="translate(0,0)"/>
<path d="" fill="#000000" transform="translate(0,0)"/>
<path d="" fill="#000000" transform="translate(0,0)"/>
<path d="" fill="#000000" transform="translate(0,0)"/>
<path d="" fill="#000000" transform="translate(0,0)"/>
<path d="" fill="#3F3F3F" transform="translate(0,0)"/>
<path d="" fill="#000000" transform="translate(0,0)"/>
<path d="" fill="#000000" transform="translate(0,0)"/>
<path d="" fill="#000000" transform="translate(0,0)"/>
<path d="" fill="#000000" transform="translate(0,0)"/>
<path d="" fill="#000000" transform="translate(0,0)"/>
<path d="" fill="#000000" transform="translate(0,0)"/>
<path d="" fill="#000000" transform="translate(0,0)"/>
<path d="" fill="#000000" transform="translate(0,0)"/>
<path d="" fill="#000000" transform="translate(0,0)"/>
<path d="" fill="#000000" transform="translate(0,0)"/>
<path d="" fill="#000000" transform="translate(0,0)"/>
<path d="" fill="#000000" transform="translate(0,0)"/>
<path d="" fill="#000000" transform="translate(0,0)"/>
<path d="" fill="#000000" transform="translate(0,0)"/>
<path d="" fill="#000000" transform="translate(0,0)"/>
<path d="" fill="#000000" transform="translate(0,0)"/>
<path d="" fill="#000000" transform="translate(0,0)"/>
<path d="" fill="#000000" transform="translate(0,0)"/>
<path d="" fill="#000000" transform="translate(0,0)"/>
<path d="" fill="#000000" transform="translate(0,0)"/>
<path d="" fill="#000000" transform="translate(0,0)"/>
<path d="" fill="#000000" transform="translate(0,0)"/>
<path d="" fill="#000000" transform="translate(0,0)"/>
<path d="" fill="#000000" transform="translate(0,0)"/>
<path d="" fill="#000000" transform="translate(0,0)"/>
<path d="" fill="#000000" transform="translate(0,0)"/>
<path d="" fill="#000000" transform="translate(0,0)"/>
<path d="" fill="#000000" transform="translate(0,0)"/>
<path d="" fill="#000000" transform="translate(0,0)"/>
<path d="" fill="#000000" transform="translate(0,0)"/>
<path d="" fill="#000000" transform="translate(0,0)"/>
<path d="" fill="#000000" transform="translate(0,0)"/>
<path d="" fill="#000000" transform="translate(0,0)"/>
<path d="" fill="#000000" transform="translate(0,0)"/>
<path d="" fill="#000000" transform="translate(0,0)"/>
<path d="" fill="#000000" transform="translate(0,0)"/>
<path d="" fill="#000000" transform="translate(0,0)"/>
<path d="" fill="#000000" transform="translate(0,0)"/>
<path d="" fill="#000000" transform="translate(0,0)"/>
<path d="" fill="#000000" transform="translate(0,0)"/>
<path d="" fill="#000000" transform="translate(0,0)"/>
<path d="" fill="#000000" transform="translate(0,0)"/>
<path d="" fill="#000000" transform="translate(0,0)"/>
<path d="" fill="#000000" transform="translate(0,0)"/>
<path d="" fill="#000000" transform="translate(0,0)"/>
<path d="" fill="#000000" transform="translate(0,0)"/>
<path d="" fill="#000000" transform="translate(0,0)"/>
<path d="" fill="#000000" transform="translate(0,0)"/>
<path d="" fill="#000000" transform="translate(0,0)"/>
<path d="" fill="#000000" transform="translate(0,0)"/>
<path d="" fill="#000000" transform="translate(0,0)"/>
<path d="" fill="#000000" transform="translate(0,0)"/>
<path d="" fill="#000000" transform="translate(0,0)"/>
<path d="" fill="#000000" transform="translate(0,0)"/>
<path d="" fill="#000000" transform="translate(0,0)"/>
<path d="" fill="#000000" transform="translate(0,0)"/>
<path d="" fill="#000000" transform="translate(0,0)"/>
<path d="" fill="#000000" transform="translate(0,0)"/>
<path d="" fill="#000000" transform="translate(0,0)"/>
<path d="" fill="#000000" transform="translate(0,0)"/>
<path d="" fill="#000000" transform="translate(0,0)"/>
<path d="" fill="#000000" transform="translate(0,0)"/>
<path d="" fill="#000000" transform="translate(0,0)"/>
<path d="" fill="#000000" transform="translate(0,0)"/>
<path d="" fill="#000000" transform="translate(0,0)"/>
<path d="" fill="#000000" transform="translate(0,0)"/>
<path d="" fill="#000000" transform="translate(0,0)"/>
<path d="" fill="#000000" transform="translate(0,0)"/>
<path d="" fill="#000000" transform="translate(0,0)"/>
<path d="" fill="#000000" transform="translate(0,0)"/>
<path d="" fill="#000000" transform="translate(0,0)"/>
<path d="" fill="#000000" transform="translate(0,0)"/>
<path d="" fill="#000000" transform="translate(0,0)"/>
<path d="" fill="#000000" transform="translate(0,0)"/>
<path d="" fill="#000000" transform="translate(0,0)"/>
<path d="" fill="#000000" transform="translate(0,0)"/>
<path d="" fill="#000000" transform="translate(0,0)"/>
<path d="" fill="#000000" transform="translate(0,0)"/>
<path d="" fill="#000000" transform="translate(0,0)"/>
<path d="" fill="#000000" transform="translate(0,0)"/>
<path d="" fill="#000000" transform="translate(0,0)"/>
<path d="" fill="#000000" transform="translate(0,0)"/>
<path d="" fill="#000000" transform="translate(0,0)"/>
<path d="" fill="#000000" transform="translate(0,0)"/>
<path d="" fill="#000000" transform="translate(0,0)"/>
<path d="" fill="#000000" transform="translate(0,0)"/>
<path d="" fill="#000000" transform="translate(0,0)"/>
<path d="" fill="#000000" transform="translate(0,0)"/>
<path d="" fill="#000000" transform="translate(0,0)"/>
<path d="" fill="#000000" transform="translate(0,0)"/>
<path d="" fill="#000000" transform="translate(0,0)"/>
<path d="" fill="#000000" transform="translate(0,0)"/>
<path d="" fill="#000000" transform="translate(0,0)"/>
<path d="" fill="#000000" transform="translate(0,0)"/>
<path d="" fill="#000000" transform="translate(0,0)"/>
<path d="" fill="#000000" transform="translate(0,0)"/>
<path d="" fill="#000000" transform="translate(0,0)"/>
<path d="" fill="#000000" transform="translate(0,0)"/>
<path d="" fill="#000000" transform="translate(0,0)"/>
<path d="" fill="#000000" transform="translate(0,0)"/>
<path d="" fill="#000000" transform="translate(0,0)"/>
<path d="" fill="#000000" transform="translate(0,0)"/>
<path d="" fill="#000000" transform="translate(0,0)"/>
<path d="" fill="#000000" transform="translate(0,0)"/>
<path d="" fill="#000000" transform="translate(0,0)"/>
<path d="" fill="#000000" transform="translate(0,0)"/>
<path d="" fill="#000000" transform="translate(0,0)"/>
<path d="" fill="#000000" transform="translate(0,0)"/>
<path d="" fill="#000000" transform="translate(0,0)"/>
<path d="" fill="#000000" transform="translate(0,0)"/>
<path d="" fill="#000000" transform="translate(0,0)"/>
</svg>
