<?xml version="1.0" encoding="UTF-8"?>
<svg version="1.1" xmlns="http://www.w3.org/2000/svg" width="140" height="140">
<path d="M0 0 C46.2 0 92.4 0 140 0 C140 46.2 140 92.4 140 140 C93.8 140 47.6 140 0 140 C0 93.8 0 47.6 0 0 Z " fill="#FD9752" transform="translate(0,0)"/>
<path d="M0 0 C10.22341171 -0.06981013 20.44676579 -0.12296775 30.67036819 -0.15543652 C35.41867807 -0.17102755 40.16682369 -0.19214451 44.91503906 -0.22631836 C49.50567975 -0.25914768 54.09616342 -0.27690224 58.68691254 -0.28463173 C60.42982196 -0.29013324 62.17272375 -0.30087517 63.91556549 -0.31719017 C73.72321989 -0.40526838 82.56895729 -0.08435552 92 3 C93.10214844 3.35320312 94.20429687 3.70640625 95.33984375 4.0703125 C110.58166861 10.25872259 123.68280647 20.67594447 132 35 C133.23646152 37.95961533 134.16874514 40.90757942 135 44 C123.28125 49.859375 123.28125 49.859375 121.14819336 50.92236328 C119.6920926 51.65281319 118.23986743 52.39103095 116.79125977 53.13623047 C115.73636353 53.67594482 115.73636353 53.67594482 114.66015625 54.2265625 C114.02988525 54.55221191 113.39961426 54.87786133 112.75024414 55.21337891 C109.86785976 56.50882352 108.09355897 56.65820404 105 56 C100.11069339 52.87597915 97.06112427 48.8786668 94 44 C88.32890065 36.07188882 82.60541083 28.98098957 73 26 C66.64994518 25.15955157 60.75693718 26.20023953 55 29 C52.16666667 31.16666667 52.16666667 31.16666667 50 34 C49.53464844 34.44601563 49.06929687 34.89203125 48.58984375 35.3515625 C44.06054091 40.27197506 44.2309879 45.82020574 44.44140625 52.25390625 C45.38214734 58.5627923 48.10528701 63.4774644 52.9140625 67.66796875 C57.92552032 70.86816934 64.16396309 71.88580867 69.9375 73 C70.75734375 73.16242188 71.5771875 73.32484375 72.421875 73.4921875 C74.22091539 73.84654394 76.02338061 74.18375619 77.828125 74.5078125 C85.11316275 76.080266 88.83117832 78.82542449 93 85 C95.34174585 89.6834917 94.4957366 95.92009232 94 101 C92.07277281 106.24589642 88.65711213 109.93611044 84 113 C78.27695053 114.90768316 71.29679785 115.18578374 65.578125 113.12890625 C58.04684155 108.67727553 53.43669363 101.37847581 48.7109375 94.234375 C46.47500434 91.31438923 44.44107914 89.50231902 40.94921875 88.28515625 C35.06464721 87.7058461 31.74477642 89.54664504 27.23364258 93.05444336 C23.51450671 96.11626488 19.90213172 99.29172665 16.31835938 102.51025391 C12.32515432 106 12.32515432 106 9 106 C7.85650793 103.59071724 6.73578713 101.174337 5.625 98.75 C5.30789062 98.08742188 4.99078125 97.42484375 4.6640625 96.7421875 C-0.66837109 84.96639665 -0.27634381 72.41305674 -0.1953125 59.765625 C-0.19157392 58.03399826 -0.18873095 56.30236938 -0.18673706 54.57073975 C-0.17916705 50.05316134 -0.159577 45.53571526 -0.1373291 41.01818848 C-0.11672631 36.39235218 -0.10770474 31.76649413 -0.09765625 27.140625 C-0.07632365 18.09369244 -0.04226966 9.0468573 0 0 Z " fill="#87C13D" transform="translate(0,0)"/>
<path d="M0 0 C19.8 0 39.6 0 60 0 C60 19.8 60 39.6 60 60 C59.67 60 59.34 60 59 60 C59 57.36 59 54.72 59 52 C58.34 52 57.68 52 57 52 C56.67 50.35 56.34 48.7 56 47 C50.71538841 48.96042043 45.67175712 51.13224344 40.69360352 53.7878418 C30.18247641 59.34890394 30.18247641 59.34890394 24 58 C21.39234255 55.95112629 19.57981953 53.73640181 17.5390625 51.14453125 C14.52962765 47.23345142 14.52962765 47.23345142 10.1875 45.1875 C9.1046875 45.0946875 9.1046875 45.0946875 8 45 C7.67 44.34 7.34 43.68 7 43 C7.99 42.67 8.98 42.34 10 42 C8.98239527 39.86124923 8.98239527 39.86124923 7 38 C3.45828022 37.83330682 3.45828022 37.83330682 0 38 C-0.66 37.34 -1.32 36.68 -2 36 C-1 35 -1 35 1.5625 34.9375 C2.366875 34.958125 3.17125 34.97875 4 35 C4 34.34 4 33.68 4 33 C2.67741528 32.31225595 1.34013497 31.65288627 0 31 C-1.010625 30.46375 -2.02125 29.9275 -3.0625 29.375 C-8.54857589 27.07932447 -14.57121957 27.06327133 -20.2734375 28.62109375 C-25.7090099 30.96401289 -29.24560653 34.80833073 -32 40 C-32.95957765 42.97561338 -33.58427826 45.90358979 -34 49 C-32.02 49 -30.04 49 -28 49 C-27.34 50.32 -26.68 51.64 -26 53 C-27 54 -27 54 -30.0625 54.0625 C-31.031875 54.041875 -32.00125 54.02125 -33 54 C-33 54.66 -33 55.32 -33 56 C-31.906875 55.773125 -30.81375 55.54625 -29.6875 55.3125 C-26 55 -26 55 -24.0625 56.4375 C-23.711875 56.953125 -23.36125 57.46875 -23 58 C-23.495 58.99 -23.495 58.99 -24 60 C-24.99 60 -25.98 60 -27 60 C-27.16687448 62.41645782 -27.16687448 62.41645782 -27 65 C-21.90196815 70.09803185 -12.6364093 70.21560581 -5.78710938 71.32421875 C1.47120739 72.60601769 7.50091547 74.53634594 12.3125 80.5 C12.78300781 81.0671875 13.25351563 81.634375 13.73828125 82.21875 C17.56801662 87.62543523 17.73019215 92.50038842 17 99 C14.87193659 105.72928161 10.46600493 111.08758802 4.9375 115.375 C-0.85343706 118.34600249 -7.48160075 118.12652844 -13.57421875 116.17578125 C-20.88871832 112.44197068 -25.41404253 105.98352801 -30.23828125 99.55859375 C-34.64612989 93.34900564 -34.64612989 93.34900564 -41.34765625 90.390625 C-45.99816717 91.16653912 -48.72661841 92.95407652 -52.4375 95.75 C-53.07365234 96.1934375 -53.70980469 96.636875 -54.36523438 97.09375 C-56.42066326 98.54381844 -56.42066326 98.54381844 -59 101 C-59 102.32 -59 103.64 -59 105 C-59.33 105.66 -59.66 106.32 -60 107 C-61.485 106.505 -61.485 106.505 -63 106 C-63 107.32 -63 108.64 -63 110 C-63.66 110 -64.32 110 -65 110 C-62.07991423 120.38252718 -51.83281271 126.60792309 -43.078125 131.69921875 C-36.460404 135.23952804 -30.4284769 137.10345968 -23 138 C-21.60392908 138.20673524 -20.20805732 138.4148257 -18.8125 138.625 C-17.4203125 138.810625 -17.4203125 138.810625 -16 139 C-16 139.33 -16 139.66 -16 140 C-37.12 140 -58.24 140 -80 140 C-80 119.54 -80 99.08 -80 78 C-79.67 78 -79.34 78 -79 78 C-78.88785156 79.05574219 -78.88785156 79.05574219 -78.7734375 80.1328125 C-77.74310839 87.87038212 -75.48106723 94.14390692 -72.2421875 101.1640625 C-71 104 -71 104 -71 106 C-66.41654453 103.45657962 -62.4869511 100.29689824 -58.4375 97 C-56.50666803 95.43721518 -54.57501047 93.87573076 -52.63647461 92.32250977 C-51.35493248 91.28683712 -50.09494925 90.22447644 -48.84375 89.15234375 C-46.47800358 87.67375224 -44.83815718 87.56677682 -42.0625 87.5625 C-41.22847656 87.54316406 -40.39445312 87.52382812 -39.53515625 87.50390625 C-34.07664005 88.57205965 -31.26646601 92.74738873 -28.29882812 97.08398438 C-27.47761521 98.31515509 -26.65729565 99.54692218 -25.83789062 100.77929688 C-22.31030918 105.92901026 -18.07948012 110.87570289 -12 113 C-5.38216502 113.65836343 1.45771892 114.12118337 7 110 C12.84471287 103.66822772 13.44846288 98.8462145 13.31640625 90.359375 C12.9223068 86.17510919 11.93225304 84.01150312 9 81 C8.319375 80.278125 7.63875 79.55625 6.9375 78.8125 C1.03893269 75.17295847 -5.86849093 74.15771644 -12.625 73 C-20.52590864 71.59113612 -26.52997155 70.51064972 -31.7109375 64.01171875 C-36.54894432 56.46149599 -37.26485719 49.85400035 -36 41 C-33.01010529 33.98733786 -27.90608404 29.12172669 -21 26 C-18.5625 25.1875 -18.5625 25.1875 -16 25 C-15.35546875 24.92652344 -14.7109375 24.85304688 -14.046875 24.77734375 C-6.4192028 24.25727519 -0.5257033 27.0447203 5.26953125 31.90234375 C9.11605385 35.62041105 12.13681676 39.47432327 15 44 C16.17052471 45.59592374 17.35941787 47.17847397 18.5625 48.75 C19.14128906 49.50796875 19.72007813 50.2659375 20.31640625 51.046875 C22.54813626 53.63588893 24.23590158 54.8953444 27.65234375 55.36328125 C32.13934301 54.87636068 35.55552004 53.18574066 39.5625 51.1875 C40.30435547 50.83107422 41.04621094 50.47464844 41.81054688 50.10742188 C44.93018778 48.59343764 47.93587232 47.03892542 50.90234375 45.23828125 C53 44 53 44 55 44 C46.21683093 24.63710454 32.48455542 11.34825716 12.46875 3.77734375 C8.38038702 2.49002693 4.22685304 1.68349113 0 1 C0 0.67 0 0.34 0 0 Z " fill="#FDFCFA" transform="translate(80,0)"/>
<path d="M0 0 C3.87674012 2.62933478 6.3969736 5.61673552 9.0625 9.4375 C14.70746557 17.47458959 19.80764987 24.58771799 30.00390625 26.58984375 C36.60845513 26.93567581 40.85654307 25.61416936 46.16015625 21.703125 C48.08751824 20.04216272 48.08751824 20.04216272 49.515625 17.8125 C50.00546875 17.214375 50.4953125 16.61625 51 16 C54.6875 15.75 54.6875 15.75 58 16 C58.33 15.01 58.66 14.02 59 13 C59.99 13 60.98 13 62 13 C61.34 14.98 60.68 16.96 60 19 C60.66 19 61.32 19 62 19 C61.31113213 22.38891322 60.01283514 25.18011613 58.4375 28.25 C57.98246094 29.14203125 57.52742188 30.0340625 57.05859375 30.953125 C56.53458984 31.96632813 56.53458984 31.96632813 56 33 C56.66 33 57.32 33 58 33 C56.87593283 37.94589555 55.39524231 42.1449853 52 46 C39.33464183 53.10541671 20.66084852 50.85812079 7 48 C3.79519831 46.96202691 0.9456392 45.62264578 -2 44 C-2.72316406 43.64035156 -3.44632813 43.28070313 -4.19140625 42.91015625 C-12.50406663 38.61648646 -22.16468695 32.25541253 -27 24 C-27 22.68 -27 21.36 -27 20 C-26.34 20 -25.68 20 -25 20 C-25 18.68 -25 17.36 -25 16 C-24.01 15.67 -23.02 15.34 -22 15 C-22 13.68 -22 12.36 -22 11 C-19.90707613 9.08099515 -17.91508823 7.45759503 -15.625 5.8125 C-14.72007813 5.13670898 -14.72007813 5.13670898 -13.796875 4.44726562 C-8.80583591 0.7483511 -6.30965645 -0.53471665 0 0 Z " fill="#FC6B19" transform="translate(42,90)"/>
<path d="M0 0 C0.66 0 1.32 0 2 0 C2 0.66 2 1.32 2 2 C3.0725 1.67 4.145 1.34 5.25 1 C9 0 9 0 13 0 C13.34611328 0.79664063 13.34611328 0.79664063 13.69921875 1.609375 C16.19216548 7.00911732 18.37639831 10.62419401 24.19140625 12.83203125 C28.3894911 14.16569514 32.61584943 15.16044368 36.9375 16 C37.75734375 16.16242188 38.5771875 16.32484375 39.421875 16.4921875 C41.22091539 16.84654394 43.02338061 17.18375619 44.828125 17.5078125 C52.11316275 19.080266 55.83117832 21.82542449 60 28 C62.34174585 32.6834917 61.4957366 38.92009232 61 44 C59.07277281 49.24589642 55.65711213 52.93611044 51 56 C45.27695053 57.90768316 38.29679785 58.18578374 32.578125 56.12890625 C25.04684155 51.67727553 20.43669363 44.37847581 15.7109375 37.234375 C13.47500434 34.31438923 11.44107914 32.50231902 7.94921875 31.28515625 C1.99992858 30.69947483 -1.31219148 32.59893365 -5.86401367 36.15209961 C-8.42600722 38.2674472 -10.94050855 40.43035956 -13.43261719 42.62744141 C-18.42582711 47 -18.42582711 47 -21 47 C-22.62875764 41.22531382 -21.14371193 37.35042152 -19 32 C-18.56300781 30.86304688 -18.56300781 30.86304688 -18.1171875 29.703125 C-16.12939639 24.85892817 -13.64029449 21.02181432 -10.39453125 16.9296875 C-8.36242994 14.11776019 -7.21474295 11.23931453 -6 8 C-5.34 8 -4.68 8 -4 8 C-4 9.65 -4 11.3 -4 13 C-3.05125 13.309375 -2.1025 13.61875 -1.125 13.9375 C2 15 2 15 4 16 C4.33 12.37 4.66 8.74 5 5 C2.03 4.505 2.03 4.505 -1 4 C-0.67 2.68 -0.34 1.36 0 0 Z " fill="#82B93A" transform="translate(33,57)"/>
<path d="M0 0 C2.24257664 1.28282986 4.34704191 2.68969461 6.5 4.125 C6.5 4.785 6.5 5.445 6.5 6.125 C4.85 6.455 3.2 6.785 1.5 7.125 C4.36312853 8.3079154 4.36312853 8.3079154 6.9375 7.875 C9.5 8.125 9.5 8.125 11.8125 10.625 C12.369375 11.45 12.92625 12.275 13.5 13.125 C13.17 13.785 12.84 14.445 12.5 15.125 C13.6490712 16.4231424 13.6490712 16.4231424 16.5 17.125 C18.21875 19.12109375 18.21875 19.12109375 20 21.5625 C22.1129926 24.4493298 23.48476316 26.11484211 26.5 28.125 C31.04531422 28.34493456 35.06590901 28.23352275 39.5 27.125 C39.00545493 31.25798384 38.10542047 32.96194915 34.875 35.5625 C34.15957031 36.15289062 33.44414063 36.74328125 32.70703125 37.3515625 C31.97871094 37.93679687 31.25039062 38.52203125 30.5 39.125 C29.18297979 40.22377115 27.87009708 41.32753146 26.5625 42.4375 C25.99660156 42.90800781 25.43070313 43.37851563 24.84765625 43.86328125 C23.36554616 45.10450473 23.36554616 45.10450473 22.5 47.125 C21.51 47.125 20.52 47.125 19.5 47.125 C19.17 48.115 18.84 49.105 18.5 50.125 C17.51 50.455 16.52 50.785 15.5 51.125 C13.8465074 50.23465783 12.19249763 49.33830801 10.609375 48.328125 C4.65218403 44.93031978 -0.77415667 43.53908273 -7.5 42.625 C-20.80873786 40.81626214 -20.80873786 40.81626214 -25.5 36.125 C-25.8125 33.625 -25.8125 33.625 -25.5 31.125 C-24.51 30.465 -23.52 29.805 -22.5 29.125 C-22.83 28.465 -23.16 27.805 -23.5 27.125 C-25.81 27.125 -28.12 27.125 -30.5 27.125 C-30.5 26.465 -30.5 25.805 -30.5 25.125 C-28.52 24.795 -26.54 24.465 -24.5 24.125 C-24.83 23.135 -25.16 22.145 -25.5 21.125 C-27.48 20.795 -29.46 20.465 -31.5 20.125 C-31.46632602 12.8514212 -29.5945274 8.33745628 -24.5 3.125 C-17.54545919 -2.65930558 -8.21579566 -4.1002765 0 0 Z " fill="#FC7B2C" transform="translate(77.5,28.875)"/>
<path d="M0 0 C20.46 0 40.92 0 62 0 C62 0.33 62 0.66 62 1 C61.45174561 1.12004395 60.90349121 1.24008789 60.33862305 1.36376953 C39.76743405 5.95241163 23.10056579 13.78290735 11 32 C6.140789 40.54558135 2.24621395 49.18606515 1 59 C0.67 59 0.34 59 0 59 C0 39.53 0 20.06 0 0 Z " fill="#FCFDFB" transform="translate(0,0)"/>
<path d="M0 0 C0.33 0 0.66 0 1 0 C1 20.13 1 40.26 1 61 C-18.47 61 -37.94 61 -58 61 C-58 60.67 -58 60.34 -58 60 C-57.17757812 59.75765625 -56.35515625 59.5153125 -55.5078125 59.265625 C-34.32726145 52.9065681 -18.42935626 43.90744511 -7.46484375 23.8359375 C-6.98144531 22.90007812 -6.49804688 21.96421875 -6 21 C-5.38318359 19.84371094 -5.38318359 19.84371094 -4.75390625 18.6640625 C-1.80904514 12.68804399 -0.84487245 6.569995 0 0 Z " fill="#FEFCFA" transform="translate(139,79)"/>
<path d="M0 0 C0.66 0 1.32 0 2 0 C2 0.66 2 1.32 2 2 C3.0725 1.67 4.145 1.34 5.25 1 C9 0 9 0 13 0 C13.34611328 0.79664063 13.34611328 0.79664063 13.69921875 1.609375 C16.21312607 7.05451812 18.41535366 10.62557601 24.26171875 12.8671875 C29.47892781 14.54500358 34.55083591 15.49544777 40 16 C39.67 19.3 39.34 22.6 39 26 C33.03717072 27.75377332 27.34982634 28.38602725 21.1484375 28.75390625 C18.0516553 28.99596243 15.0547094 29.44501526 12 30 C13 28 13 28 15.1796875 27.1484375 C16.51386719 26.76558594 16.51386719 26.76558594 17.875 26.375 C18.75929687 26.11460938 19.64359375 25.85421875 20.5546875 25.5859375 C23 25 23 25 26 25 C25.505 24.01 25.505 24.01 25 23 C23.96875 23.33 22.9375 23.66 21.875 24 C18.51573291 24.9715192 15.50893798 25.17116771 12 25 C11.34 26.65 10.68 28.3 10 30 C9.01 29.67 8.02 29.34 7 29 C7.66 29 8.32 29 9 29 C9 28.01 9 27.02 9 26 C8.360625 26.185625 7.72125 26.37125 7.0625 26.5625 C3.56051568 27.06278347 0.57234883 26.72391733 -2.9140625 26.25390625 C-5.14611425 25.9395845 -5.14611425 25.9395845 -8 26 C-7.34 29.63 -6.68 33.26 -6 37 C-8.12058145 38.67257128 -10.24604076 40.33815418 -12.375 42 C-12.97828125 42.47695312 -13.5815625 42.95390625 -14.203125 43.4453125 C-18.7734375 47 -18.7734375 47 -21 47 C-22.62875764 41.22531382 -21.14371193 37.35042152 -19 32 C-18.56300781 30.86304688 -18.56300781 30.86304688 -18.1171875 29.703125 C-16.12939639 24.85892817 -13.64029449 21.02181432 -10.39453125 16.9296875 C-8.36242994 14.11776019 -7.21474295 11.23931453 -6 8 C-5.34 8 -4.68 8 -4 8 C-4 9.65 -4 11.3 -4 13 C-3.05125 13.309375 -2.1025 13.61875 -1.125 13.9375 C2 15 2 15 4 16 C4.33 12.37 4.66 8.74 5 5 C2.03 4.505 2.03 4.505 -1 4 C-0.67 2.68 -0.34 1.36 0 0 Z " fill="#69952F" transform="translate(33,57)"/>
<path d="M0 0 C19.8 0 39.6 0 60 0 C60 19.8 60 39.6 60 60 C59.67 60 59.34 60 59 60 C58.34 55.38 57.68 50.76 57 46 C56.34 46 55.68 46 55 46 C54.81566406 45.34515625 54.63132813 44.6903125 54.44140625 44.015625 C49.36718936 28.04875587 37.35066441 16.45794377 22.9453125 8.5 C15.46968994 4.69278639 8.28329832 2.33942696 0 1 C0 0.67 0 0.34 0 0 Z " fill="#FCFDFB" transform="translate(80,0)"/>
<path d="M0 0 C2.24257664 1.28282986 4.34704191 2.68969461 6.5 4.125 C6.5 4.785 6.5 5.445 6.5 6.125 C4.85 6.455 3.2 6.785 1.5 7.125 C4.36312853 8.3079154 4.36312853 8.3079154 6.9375 7.875 C9.5 8.125 9.5 8.125 11.8125 10.625 C12.369375 11.45 12.92625 12.275 13.5 13.125 C13.17 13.785 12.84 14.445 12.5 15.125 C13.6490712 16.4231424 13.6490712 16.4231424 16.5 17.125 C18.140625 18.6484375 18.140625 18.6484375 19.75 20.5 C20.56210938 21.40878906 20.56210938 21.40878906 21.390625 22.3359375 C21.75671875 22.92632812 22.1228125 23.51671875 22.5 24.125 C22.005 25.61 22.005 25.61 21.5 27.125 C19.4375 27.8125 19.4375 27.8125 17.5 28.125 C17.005 26.64 17.005 26.64 16.5 25.125 C14.85 25.455 13.2 25.785 11.5 26.125 C10.51 24.145 9.52 22.165 8.5 20.125 C8.644375 20.846875 8.78875 21.56875 8.9375 22.3125 C9.71875 26.21875 9.71875 26.21875 10.5 30.125 C7.85261084 31.5856285 6.60551666 32.125 3.5 32.125 C3.3453125 31.1659375 3.3453125 31.1659375 3.1875 30.1875 C2.960625 29.506875 2.73375 28.82625 2.5 28.125 C1.51 27.795 0.52 27.465 -0.5 27.125 C-1.16 26.135 -1.82 25.145 -2.5 24.125 C-3.82 24.455 -5.14 24.785 -6.5 25.125 C-7.55404945 21.14303543 -7.34098656 18.14304691 -6.5 14.125 C-7.49 13.795 -8.48 13.465 -9.5 13.125 C-9.5 12.135 -9.5 11.145 -9.5 10.125 C-10.49 10.125 -11.48 10.125 -12.5 10.125 C-12.17 11.775 -11.84 13.425 -11.5 15.125 C-15.25 16.25 -15.25 16.25 -17.5 15.125 C-17.5 14.135 -17.5 13.145 -17.5 12.125 C-18.16 12.125 -18.82 12.125 -19.5 12.125 C-20.62029814 17.61446087 -20.29217969 20.95930559 -18.5 26.125 C-17.84 26.125 -17.18 26.125 -16.5 26.125 C-16.5 30.745 -16.5 35.365 -16.5 40.125 C-23.25 38.375 -23.25 38.375 -25.5 36.125 C-25.8125 33.625 -25.8125 33.625 -25.5 31.125 C-24.51 30.465 -23.52 29.805 -22.5 29.125 C-22.83 28.465 -23.16 27.805 -23.5 27.125 C-25.81 27.125 -28.12 27.125 -30.5 27.125 C-30.5 26.465 -30.5 25.805 -30.5 25.125 C-28.52 24.795 -26.54 24.465 -24.5 24.125 C-24.83 23.135 -25.16 22.145 -25.5 21.125 C-27.48 20.795 -29.46 20.465 -31.5 20.125 C-31.46632602 12.8514212 -29.5945274 8.33745628 -24.5 3.125 C-17.54545919 -2.65930558 -8.21579566 -4.1002765 0 0 Z " fill="#FD9650" transform="translate(77.5,28.875)"/>
<path d="M0 0 C7.6276722 -0.52006856 13.5211717 2.26737655 19.31640625 7.125 C23.16292885 10.8430673 26.18369176 14.69697952 29.046875 19.22265625 C30.21739971 20.81857999 31.40629287 22.40113022 32.609375 23.97265625 C33.18816406 24.730625 33.76695313 25.48859375 34.36328125 26.26953125 C36.59501126 28.85854518 38.28277658 30.11800065 41.69921875 30.5859375 C46.18621801 30.09901693 49.60239504 28.40839691 53.609375 26.41015625 C54.7221582 25.87551758 54.7221582 25.87551758 55.85742188 25.33007812 C58.97706278 23.81609389 61.98274732 22.26158167 64.94921875 20.4609375 C67.046875 19.22265625 67.046875 19.22265625 69.046875 19.22265625 C69.046875 19.88265625 69.046875 20.54265625 69.046875 21.22265625 C69.706875 21.22265625 70.366875 21.22265625 71.046875 21.22265625 C71.541875 24.19265625 71.541875 24.19265625 72.046875 27.22265625 C70.046875 24.22265625 70.046875 24.22265625 70.046875 22.22265625 C64.76226341 24.18307668 59.71863212 26.35489969 54.74047852 29.01049805 C44.22935141 34.57156019 44.22935141 34.57156019 38.046875 33.22265625 C35.43921755 31.17378254 33.62669453 28.95905806 31.5859375 26.3671875 C28.57650265 22.45610767 28.57650265 22.45610767 24.234375 20.41015625 C23.1515625 20.31734375 23.1515625 20.31734375 22.046875 20.22265625 C21.551875 19.23265625 21.551875 19.23265625 21.046875 18.22265625 C22.036875 17.89265625 23.026875 17.56265625 24.046875 17.22265625 C23.02927027 15.08390548 23.02927027 15.08390548 21.046875 13.22265625 C17.50515522 13.05596307 17.50515522 13.05596307 14.046875 13.22265625 C13.056875 12.23265625 13.056875 12.23265625 12.046875 11.22265625 C13.046875 10.22265625 13.046875 10.22265625 15.609375 10.16015625 C16.41375 10.18078125 17.218125 10.20140625 18.046875 10.22265625 C18.046875 9.56265625 18.046875 8.90265625 18.046875 8.22265625 C16.72429028 7.5349122 15.38700997 6.87554252 14.046875 6.22265625 C13.03625 5.68640625 12.025625 5.15015625 10.984375 4.59765625 C5.49829911 2.30198072 -0.52434457 2.28592758 -6.2265625 3.84375 C-11.6621349 6.18666914 -15.19873153 10.03098698 -17.953125 15.22265625 C-18.91270265 18.19826963 -19.53740326 21.12624604 -19.953125 24.22265625 C-17.973125 24.22265625 -15.993125 24.22265625 -13.953125 24.22265625 C-13.293125 25.54265625 -12.633125 26.86265625 -11.953125 28.22265625 C-12.953125 29.22265625 -12.953125 29.22265625 -16.015625 29.28515625 C-16.985 29.26453125 -17.954375 29.24390625 -18.953125 29.22265625 C-18.953125 29.88265625 -18.953125 30.54265625 -18.953125 31.22265625 C-17.86 30.99578125 -16.766875 30.76890625 -15.640625 30.53515625 C-11.953125 30.22265625 -11.953125 30.22265625 -10.015625 31.66015625 C-9.665 32.17578125 -9.314375 32.69140625 -8.953125 33.22265625 C-9.448125 34.21265625 -9.448125 34.21265625 -9.953125 35.22265625 C-10.943125 35.22265625 -11.933125 35.22265625 -12.953125 35.22265625 C-13.11999948 37.63911407 -13.11999948 37.63911407 -12.953125 40.22265625 C-7.85509315 45.3206881 1.4104657 45.43826206 8.25976562 46.546875 C15.51808239 47.82867394 21.54779047 49.75900219 26.359375 55.72265625 C27.06513672 56.5734375 27.06513672 56.5734375 27.78515625 57.44140625 C31.61489162 62.84809148 31.77706715 67.72304467 31.046875 74.22265625 C28.91881159 80.95193786 24.51287993 86.31024427 18.984375 90.59765625 C13.19343794 93.56865874 6.56527425 93.34918469 0.47265625 91.3984375 C-6.84184332 87.66462693 -11.36716753 81.20618426 -16.19140625 74.78125 C-20.59925489 68.57166189 -20.59925489 68.57166189 -27.30078125 65.61328125 C-31.95129217 66.38919537 -34.67974341 68.17673277 -38.390625 70.97265625 C-39.02677734 71.41609375 -39.66292969 71.85953125 -40.31835938 72.31640625 C-42.37378826 73.76647469 -42.37378826 73.76647469 -44.953125 76.22265625 C-44.953125 77.54265625 -44.953125 78.86265625 -44.953125 80.22265625 C-45.448125 81.21265625 -45.448125 81.21265625 -45.953125 82.22265625 C-46.943125 81.89265625 -47.933125 81.56265625 -48.953125 81.22265625 C-48.953125 82.54265625 -48.953125 83.86265625 -48.953125 85.22265625 C-49.613125 85.22265625 -50.273125 85.22265625 -50.953125 85.22265625 C-51.283125 86.21265625 -51.613125 87.20265625 -51.953125 88.22265625 C-53.453125 86.91015625 -53.453125 86.91015625 -54.953125 85.22265625 C-54.953125 84.23265625 -54.953125 83.24265625 -54.953125 82.22265625 C-52.453125 80.53515625 -52.453125 80.53515625 -49.953125 79.22265625 C-50.283125 78.89265625 -50.613125 78.56265625 -50.953125 78.22265625 C-35.75771707 62.63402149 -35.75771707 62.63402149 -27.453125 62.34765625 C-23.21675861 62.59429402 -21.00627162 64.34882891 -17.953125 67.22265625 C-15.72645999 70.03084064 -13.77403754 73.01951347 -11.79101562 76.00195312 C-8.26343418 81.15166651 -4.03260512 86.09835914 2.046875 88.22265625 C8.66470998 88.88101968 15.50459392 89.34383962 21.046875 85.22265625 C26.89158787 78.89088397 27.49533788 74.06887075 27.36328125 65.58203125 C26.9691818 61.39776544 25.97912804 59.23415937 23.046875 56.22265625 C22.36625 55.50078125 21.685625 54.77890625 20.984375 54.03515625 C15.08580769 50.39561472 8.17838407 49.38037269 1.421875 48.22265625 C-6.47903364 46.81379237 -12.48309655 45.73330597 -17.6640625 39.234375 C-22.50206932 31.68415224 -23.21798219 25.0766566 -21.953125 16.22265625 C-18.96323029 9.20999411 -13.85920904 4.34438294 -6.953125 1.22265625 C-4.57331977 0.42938784 -2.47172769 0.28177696 0 0 Z " fill="#F1EFDE" transform="translate(65.953125,24.77734375)"/>
<path d="M0 0 C0.66 0 1.32 0 2 0 C0.6692837 9.8853211 0.6692837 9.8853211 -1.09765625 12.828125 C-2.2331466 15.56116672 -1.74397395 16.74004885 -1 19.5625 C-0.57957694 23.13609598 -0.78843677 24.63790139 -2.625 27.78125 C-9.44231229 35.7646815 -20.25625047 44.6493572 -31 46 C-30.42365861 41.24518354 -28.44931479 38.02951788 -26 34 C-26.66 34 -27.32 34 -28 34 C-27.31113213 30.61108678 -26.01283514 27.81988387 -24.4375 24.75 C-23.98246094 23.85796875 -23.52742188 22.9659375 -23.05859375 22.046875 C-22.70925781 21.37140625 -22.35992187 20.6959375 -22 20 C-22.66 20 -23.32 20 -24 20 C-23.49396008 17.83125748 -23.00016187 16.00032373 -22 14 C-22.66 14 -23.32 14 -24 14 C-24 13.34 -24 12.68 -24 12 C-19.26717667 7.74455078 -14.2768376 5.16302496 -7.9375 4.625 C-3.66545654 3.94689786 -2.68756639 3.20440608 0 0 Z " fill="#FC873A" transform="translate(126,89)"/>
<path d="M0 0 C0 0.66 0 1.32 0 2 C5.445 2.495 5.445 2.495 11 3 C11 3.66 11 4.32 11 5 C11.66 5 12.32 5 13 5 C15.41322769 9.67562865 15.25149101 13.88634938 15 19 C15 19.928125 15 20.85625 15 21.8125 C13.53278814 25.02202595 11.28432621 25.89229757 8.1171875 27.26171875 C5.05463912 28.32965536 3.20780315 28.68251131 0 28 C-4.88930661 24.87597915 -7.93887573 20.8786668 -11 16 C-12.84656032 13.66369977 -14.71823994 11.35113251 -16.609375 9.05078125 C-18 7 -18 7 -18 4 C-16.68 4 -15.36 4 -14 4 C-14 3.34 -14 2.68 -14 2 C-4.58997722 -0.29612756 -4.58997722 -0.29612756 0 0 Z " fill="#7DB338" transform="translate(105,28)"/>
<path d="M0 0 C1.89213369 2.38573379 3.02391783 4.07175348 4 7 C5.65 7 7.3 7 9 7 C9.33 7.66 9.66 8.32 10 9 C10.928125 8.79375 11.85625 8.5875 12.8125 8.375 C16 8 16 8 19 10 C23.54531422 10.21993456 27.56590901 10.10852275 32 9 C31.50545493 13.13298384 30.60542047 14.83694915 27.375 17.4375 C26.65957031 18.02789062 25.94414063 18.61828125 25.20703125 19.2265625 C24.47871094 19.81179687 23.75039062 20.39703125 23 21 C21.68297979 22.09877115 20.37009708 23.20253146 19.0625 24.3125 C18.49660156 24.78300781 17.93070313 25.25351563 17.34765625 25.73828125 C15.86554616 26.97950473 15.86554616 26.97950473 15 29 C14.01 29 13.02 29 12 29 C11.67 29.99 11.34 30.98 11 32 C8 33 8 33 6.17578125 32.22265625 C4.45052083 31.1484375 2.72526042 30.07421875 1 29 C1 27.68 1 26.36 1 25 C2.32 24.34 3.64 23.68 5 23 C4.34 21.02 3.68 19.04 3 17 C1.02 17.33 -0.96 17.66 -3 18 C-3 18.66 -3 19.32 -3 20 C-3.66 19.67 -4.32 19.34 -5 19 C-4 16 -4 16 -0.9375 14.3125 C0.031875 13.879375 1.00125 13.44625 2 13 C2.20086443 9.28400809 2.1519437 8.22791555 0 5 C-0.125 2.3125 -0.125 2.3125 0 0 Z " fill="#FC7220" transform="translate(85,47)"/>
<path d="M0 0 C0.33 0.66 0.66 1.32 1 2 C-0.65 2.33 -2.3 2.66 -4 3 C-1.13687147 4.1829154 -1.13687147 4.1829154 1.4375 3.75 C4 4 4 4 6.3125 6.5 C6.869375 7.325 7.42625 8.15 8 9 C7.67 9.66 7.34 10.32 7 11 C8.1490712 12.2981424 8.1490712 12.2981424 11 13 C12.640625 14.5234375 12.640625 14.5234375 14.25 16.375 C15.06210938 17.28378906 15.06210938 17.28378906 15.890625 18.2109375 C16.25671875 18.80132812 16.6228125 19.39171875 17 20 C16.505 21.485 16.505 21.485 16 23 C13.9375 23.6875 13.9375 23.6875 12 24 C11.67 23.01 11.34 22.02 11 21 C9.35 21.33 7.7 21.66 6 22 C5.01 20.02 4.02 18.04 3 16 C3.144375 16.721875 3.28875 17.44375 3.4375 18.1875 C3.95833333 20.79166667 4.47916667 23.39583333 5 26 C2.35261084 27.4606285 1.10551666 28 -2 28 C-2.103125 27.360625 -2.20625 26.72125 -2.3125 26.0625 C-2.539375 25.381875 -2.76625 24.70125 -3 24 C-3.99 23.67 -4.98 23.34 -6 23 C-6.66 22.01 -7.32 21.02 -8 20 C-9.32 20.33 -10.64 20.66 -12 21 C-13.05404945 17.01803543 -12.84098656 14.01804691 -12 10 C-12.99 9.67 -13.98 9.34 -15 9 C-15 8.01 -15 7.02 -15 6 C-16.65 6 -18.3 6 -20 6 C-20 5.34 -20 4.68 -20 4 C-13.4 2.68 -6.8 1.36 0 0 Z " fill="#FDAE75" transform="translate(83,33)"/>
<path d="M0 0 C1.21236328 0.01353516 1.21236328 0.01353516 2.44921875 0.02734375 C3.37154297 0.04474609 3.37154297 0.04474609 4.3125 0.0625 C4.48102247 1.66647277 4.64724886 3.2706869 4.8125 4.875 C4.9053125 5.76832031 4.998125 6.66164063 5.09375 7.58203125 C5.3125 10.0625 5.3125 10.0625 5.3125 13.0625 C3.15207921 14.74349315 1.06421916 16.18769874 -1.25 17.625 C-2.16362305 18.22344727 -2.16362305 18.22344727 -3.09570312 18.83398438 C-7.20266788 21.43723505 -10.95760776 22.93633518 -15.6875 24.0625 C-15.11115861 19.30768354 -13.13681479 16.09201788 -10.6875 12.0625 C-11.3475 12.0625 -12.0075 12.0625 -12.6875 12.0625 C-12.01109407 7.83496293 -9.9700056 4.62052344 -7.6875 1.0625 C-4.80538698 0.10179566 -2.98899956 -0.04331883 0 0 Z " fill="#FD9C58" transform="translate(110.6875,110.9375)"/>
<path d="M0 0 C0 0.66 0 1.32 0 2 C5.445 2.495 5.445 2.495 11 3 C11 3.66 11 4.32 11 5 C11.66 5 12.32 5 13 5 C16.05049905 10.9103419 15.63052246 17.68172547 14 24 C13.01 23.67 12.02 23.34 11 23 C11 22.01 11 21.02 11 20 C8.69 19.67 6.38 19.34 4 19 C4.66 17.68 5.32 16.36 6 15 C8.64 15.66 11.28 16.32 14 17 C13.69201674 15.51988629 13.378482 14.04092675 13.0625 12.5625 C12.88847656 11.73878906 12.71445313 10.91507813 12.53515625 10.06640625 C12.19247006 8.02338796 12.19247006 8.02338796 11 7 C9.48071962 6.92820036 7.95832518 6.91607993 6.4375 6.9375 C5.61121094 6.94652344 4.78492187 6.95554687 3.93359375 6.96484375 C2.97646484 6.98224609 2.97646484 6.98224609 2 7 C1.01 8.98 0.02 10.96 -1 13 C-1.33 13 -1.66 13 -2 13 C-2 11.35 -2 9.7 -2 8 C-3.98 8.33 -5.96 8.66 -8 9 C-8 11.64 -8 14.28 -8 17 C-11.36165806 15.58956521 -13.09505232 13.98473966 -15.25 11.0625 C-16.03117187 10.02802734 -16.03117187 10.02802734 -16.828125 8.97265625 C-18 7 -18 7 -18 4 C-16.68 4 -15.36 4 -14 4 C-14 3.34 -14 2.68 -14 2 C-4.58997722 -0.29612756 -4.58997722 -0.29612756 0 0 Z " fill="#66922E" transform="translate(105,28)"/>
<path d="M0 0 C0.66 0 1.32 0 2 0 C2 0.66 2 1.32 2 2 C3.0725 1.67 4.145 1.34 5.25 1 C9 0 9 0 13 0 C16.71931241 6.97154839 18.15704664 11.99062134 18 20 C16 19 16 19 15 16 C12.90280128 14.97718482 12.90280128 14.97718482 10.4375 14.3125 C9.61121094 14.06113281 8.78492188 13.80976562 7.93359375 13.55078125 C7.29550781 13.36902344 6.65742187 13.18726562 6 13 C7.21044132 17.60742865 7.21044132 17.60742865 9 22 C5.59678901 21.39228375 3.69304011 20.12178918 1 18 C0.13375 17.484375 -0.7325 16.96875 -1.625 16.4375 C-4 15 -4 15 -6 13 C-6.125 10.375 -6.125 10.375 -6 8 C-5.34 8 -4.68 8 -4 8 C-4 9.65 -4 11.3 -4 13 C-3.05125 13.309375 -2.1025 13.61875 -1.125 13.9375 C2 15 2 15 4 16 C4.33 12.37 4.66 8.74 5 5 C2.03 4.505 2.03 4.505 -1 4 C-0.67 2.68 -0.34 1.36 0 0 Z " fill="#293A14" transform="translate(33,57)"/>
<path d="M0 0 C9.96954118 3.3077953 16.50510095 10.3145144 22 19 C23.17052471 20.59592374 24.35941787 22.17847397 25.5625 23.75 C26.14128906 24.50796875 26.72007813 25.2659375 27.31640625 26.046875 C29.54813626 28.63588893 31.23590158 29.8953444 34.65234375 30.36328125 C39.13934301 29.87636068 42.55552004 28.18574066 46.5625 26.1875 C47.30435547 25.83107422 48.04621094 25.47464844 48.81054688 25.10742188 C51.93018778 23.59343764 54.93587232 22.03892542 57.90234375 20.23828125 C60 19 60 19 62 19 C62 19.66 62 20.32 62 21 C62.66 21 63.32 21 64 21 C64.495 23.97 64.495 23.97 65 27 C63 24 63 24 63 22 C57.71538841 23.96042043 52.67175712 26.13224344 47.69360352 28.7878418 C37.18247641 34.34890394 37.18247641 34.34890394 31 33 C28.39234255 30.95112629 26.57981953 28.73640181 24.5390625 26.14453125 C21.52962765 22.23345142 21.52962765 22.23345142 17.1875 20.1875 C16.465625 20.125625 15.74375 20.06375 15 20 C14.67 19.34 14.34 18.68 14 18 C14.99 17.67 15.98 17.34 17 17 C15.98239527 14.86124923 15.98239527 14.86124923 14 13 C10.45828022 12.83330682 10.45828022 12.83330682 7 13 C6.34 12.34 5.68 11.68 5 11 C6 10 6 10 8.5625 9.9375 C9.366875 9.958125 10.17125 9.97875 11 10 C11 9.34 11 8.68 11 8 C9.67741528 7.31225595 8.34013497 6.65288627 7 6 C6.01 5.484375 5.02 4.96875 4 4.4375 C-1.06037673 2.24503918 -6.56112042 2.25899427 -12 2 C-7.88879431 -0.7408038 -4.82674466 -0.7076246 0 0 Z " fill="#F6EBDA" transform="translate(73,25)"/>
<path d="M0 0 C0.66 0 1.32 0 2 0 C0.67011874 9.87911794 0.67011874 9.87911794 -1.0859375 12.81640625 C-2.22899323 15.54703939 -1.82014575 16.89171562 -1.1875 19.75 C-0.72849334 23.11272271 -0.69303887 24.49755309 -2.484375 27.4296875 C-4.24159003 29.40479719 -6.02864362 31.24003595 -8 33 C-8.99 32.67 -9.98 32.34 -11 32 C-11.33 28.04 -11.66 24.08 -12 20 C-10.35 19.67 -8.7 19.34 -7 19 C-6.34 16.03 -5.68 13.06 -5 10 C-5.66 10 -6.32 10 -7 10 C-7 9.34 -7 8.68 -7 8 C-8.32 8 -9.64 8 -11 8 C-11 7.34 -11 6.68 -11 6 C-8.69 6 -6.38 6 -4 6 C-3.566875 5.071875 -3.566875 5.071875 -3.125 4.125 C-2 2 -2 2 0 0 Z " fill="#FB6F1E" transform="translate(126,89)"/>
<path d="M0 0 C3.96 0.33 7.92 0.66 12 1 C11.67 4.3 11.34 7.6 11 11 C5.03717072 12.75377332 -0.65017366 13.38602725 -6.8515625 13.75390625 C-9.9483447 13.99596243 -12.9452906 14.44501526 -16 15 C-15 13 -15 13 -12.8203125 12.1484375 C-11.93085937 11.89320312 -11.04140625 11.63796875 -10.125 11.375 C-9.24070312 11.11460938 -8.35640625 10.85421875 -7.4453125 10.5859375 C-5 10 -5 10 -2 10 C-2 9.34 -2 8.68 -2 8 C-3.32 7.34 -4.64 6.68 -6 6 C-3.35261084 4.5393715 -2.10551666 4 1 4 C0.67 2.68 0.34 1.36 0 0 Z " fill="#547826" transform="translate(61,72)"/>
<path d="M0 0 C0.99 0 1.98 0 3 0 C3.33 0.99 3.66 1.98 4 3 C4.66 3.33 5.32 3.66 6 4 C5.91306859 5.79258558 5.80489496 7.58415144 5.6875 9.375 C5.62949219 10.37273438 5.57148437 11.37046875 5.51171875 12.3984375 C5.34285156 13.25695313 5.17398438 14.11546875 5 15 C1.50875983 17.32749345 0.10777749 17.50299316 -4 17 C-6.62937679 15.08126559 -7.7516651 13.67405187 -8.875 10.625 C-9.02999199 7.37016824 -8.18946096 5.00863655 -7 2 C-6.34 2 -5.68 2 -5 2 C-5 2.99 -5 3.98 -5 5 C-3.02 5 -1.04 5 1 5 C0.67 3.35 0.34 1.7 0 0 Z " fill="#FC6D1B" transform="translate(65,39)"/>
<path d="M0 0 C2.1047116 3.42015636 2.16877959 6.03367953 2 10 C2 10.99 2 11.98 2 13 C-0.16042079 14.68099315 -2.24828084 16.12519874 -4.5625 17.5625 C-5.47612305 18.16094727 -5.47612305 18.16094727 -6.40820312 18.77148438 C-10.51516788 21.37473505 -14.27010776 22.87383518 -19 24 C-18.42365861 19.24518354 -16.44931479 16.02951788 -14 12 C-13.67 13.32 -13.34 14.64 -13 16 C-12.01 16 -11.02 16 -10 16 C-9.34 16 -8.68 16 -8 16 C-8 15.01 -8 14.02 -8 13 C-7.071875 12.38125 -7.071875 12.38125 -6.125 11.75 C-3.13365497 9.28653939 -2.92218557 6.68874226 -2 3 C-1.34 2.01 -0.68 1.02 0 0 Z " fill="#FC883C" transform="translate(114,111)"/>
<path d="M0 0 C3.625 -0.1875 3.625 -0.1875 7 0 C6.96519531 1.03060547 6.96519531 1.03060547 6.9296875 2.08203125 C6.91164063 2.98308594 6.89359375 3.88414063 6.875 4.8125 C6.84019531 6.15248047 6.84019531 6.15248047 6.8046875 7.51953125 C6.81714173 10.25402714 6.81714173 10.25402714 9 13 C9 14.32 9 15.64 9 17 C6.35261084 18.4606285 5.10551666 19 2 19 C1.8453125 18.0409375 1.8453125 18.0409375 1.6875 17.0625 C1.460625 16.381875 1.23375 15.70125 1 15 C0.01 14.67 -0.98 14.34 -2 14 C-2.66 13.01 -3.32 12.02 -4 11 C-5.32 11.33 -6.64 11.66 -8 12 C-9.125 7.25 -9.125 7.25 -8 5 C-5.4375 4.375 -5.4375 4.375 -3 4 C-3 4.99 -3 5.98 -3 7 C-2.34 7 -1.68 7 -1 7 C-1 8.98 -1 10.96 -1 13 C0.32 13 1.64 13 3 13 C3.66 9.37 4.32 5.74 5 2 C2.69 2.33 0.38 2.66 -2 3 C-1.34 2.01 -0.68 1.02 0 0 Z " fill="#FDA161" transform="translate(79,42)"/>
<path d="M0 0 C1.9375 0.1875 1.9375 0.1875 4 1 C5.25 3.0625 5.25 3.0625 6 5 C4.71034824 6.37562854 3.37310707 7.70766393 2 9 C1.34 9 0.68 9 0 9 C-0.268125 9.639375 -0.53625 10.27875 -0.8125 10.9375 C-2 13 -2 13 -5 14 C-6.03307106 15.77211082 -6.03307106 15.77211082 -7 18 C-8.19018351 19.92798957 -9.39977163 21.8440892 -10.625 23.75 C-11.57246094 25.22726563 -11.57246094 25.22726563 -12.5390625 26.734375 C-13.02117187 27.48203125 -13.50328125 28.2296875 -14 29 C-14.66 28.34 -15.32 27.68 -16 27 C-15.525625 26.2575 -15.05125 25.515 -14.5625 24.75 C-13.22130673 22.38949985 -12.487688 20.63351523 -12 18 C-11.34 18 -10.68 18 -10 18 C-10 16.68 -10 15.36 -10 14 C-9.34 14 -8.68 14 -8 14 C-7.773125 13.443125 -7.54625 12.88625 -7.3125 12.3125 C-5.64103234 9.36753316 -3.44723648 7.31843456 -1 5 C-1.66 5 -2.32 5 -3 5 C-1.125 1.125 -1.125 1.125 0 0 Z " fill="#6C9A30" transform="translate(84,78)"/>
<path d="M0 0 C0.53625 0.45375 1.0725 0.9075 1.625 1.375 C7.8520814 5.63563464 15.92123576 6.1440072 23.21289062 7.32421875 C30.49518733 8.61025248 36.49840984 10.57265284 41.375 16.5 C41.85710937 17.0671875 42.33921875 17.634375 42.8359375 18.21875 C45.32749985 22.03134206 45.03672072 25.32393996 44.5625 29.75 C44.46066406 30.73484375 44.35882813 31.7196875 44.25390625 32.734375 C44.17011719 33.48203125 44.08632812 34.2296875 44 35 C43.67 35 43.34 35 43 35 C42.97421875 34.20335937 42.9484375 33.40671875 42.921875 32.5859375 C42.50401617 24.77957477 41.37882177 20.58359885 35.9375 14.8125 C30.03893269 11.17295847 23.13150907 10.15771644 16.375 9 C3.67919281 6.78096207 3.67919281 6.78096207 -0.0625 2.8125 C-0.371875 2.214375 -0.68125 1.61625 -1 1 C-0.67 0.67 -0.34 0.34 0 0 Z " fill="#E6E5CB" transform="translate(51,64)"/>
<path d="M0 0 C3.43751771 1.11815167 4.95082016 2.81593729 7.1015625 5.68359375 C2.2265625 4.80859375 2.2265625 4.80859375 1.1015625 3.68359375 C-5.28937442 2.94214836 -8.44574923 4.74913444 -13.3359375 8.43359375 C-14.29016602 9.09875 -14.29016602 9.09875 -15.26367188 9.77734375 C-17.31910076 11.22741219 -17.31910076 11.22741219 -19.8984375 13.68359375 C-19.8984375 15.00359375 -19.8984375 16.32359375 -19.8984375 17.68359375 C-20.2284375 18.34359375 -20.5584375 19.00359375 -20.8984375 19.68359375 C-21.8884375 19.35359375 -22.8784375 19.02359375 -23.8984375 18.68359375 C-23.8984375 20.00359375 -23.8984375 21.32359375 -23.8984375 22.68359375 C-24.5584375 22.68359375 -25.2184375 22.68359375 -25.8984375 22.68359375 C-26.2284375 23.67359375 -26.5584375 24.66359375 -26.8984375 25.68359375 C-28.3984375 24.37109375 -28.3984375 24.37109375 -29.8984375 22.68359375 C-29.8984375 21.69359375 -29.8984375 20.70359375 -29.8984375 19.68359375 C-27.3984375 17.99609375 -27.3984375 17.99609375 -24.8984375 16.68359375 C-25.2284375 16.35359375 -25.5584375 16.02359375 -25.8984375 15.68359375 C-9.61796182 -1.01818814 -9.61796182 -1.01818814 0 0 Z " fill="#ECE8D2" transform="translate(40.8984375,87.31640625)"/>
<path d="M0 0 C0.33 0.66 0.66 1.32 1 2 C1.99 2.33 2.98 2.66 4 3 C4.35820896 10.28358209 4.35820896 10.28358209 3 13 C-0.27967758 14.63983879 -3.37138689 14.17845638 -7 14 C-7.12375 13.360625 -7.2475 12.72125 -7.375 12.0625 C-7.58125 11.381875 -7.7875 10.70125 -8 10 C-8.66 9.67 -9.32 9.34 -10 9 C-9.52949219 8.68546875 -9.05898437 8.3709375 -8.57421875 8.046875 C-5.11997567 5.67252986 -2.27221496 3.60881199 0 0 Z " fill="#FC7D2D" transform="translate(93,106)"/>
<path d="M0 0 C1.33333333 0.66666667 2.66666667 1.33333333 4 2 C4.99 2.474375 5.98 2.94875 7 3.4375 C9.59503909 4.78908286 11.81232128 6.06474575 14 8 C14 8.66 14 9.32 14 10 C9.17639811 10.19294408 5.50353262 9.75747614 1 8 C1 8.66 1 9.32 1 10 C-0.65 10 -2.3 10 -4 10 C-4 10.99 -4 11.98 -4 13 C-4.66 13 -5.32 13 -6 13 C-6.33 11.68 -6.66 10.36 -7 9 C-6.01 8.67 -5.02 8.34 -4 8 C-3.26676204 5.98491642 -3.26676204 5.98491642 -3 4 C-2.01 4 -1.02 4 0 4 C0 2.68 0 1.36 0 0 Z " fill="#7EB538" transform="translate(27,71)"/>
<path d="M0 0 C0.33 0.33 0.66 0.66 1 1 C0.91062197 2.52519276 0.75462854 4.04681929 0.5625 5.5625 C0.46066406 6.38878906 0.35882813 7.21507813 0.25390625 8.06640625 C0.17011719 8.70449219 0.08632812 9.34257813 0 10 C-3.74891097 11.03218914 -7.10176743 11.21656848 -11 11 C-11.66 10.34 -12.32 9.68 -13 9 C-6.93359595 -0.74957794 -6.93359595 -0.74957794 0 0 Z " fill="#FD9B58" transform="translate(116,98)"/>
<path d="M0 0 C0.69965443 1.26418246 1.38434763 2.53665402 2.0625 3.8125 C2.44535156 4.52019531 2.82820313 5.22789063 3.22265625 5.95703125 C4 8 4 8 3 11 C-3.4 12.35384615 -3.4 12.35384615 -6.4375 10.5625 C-6.953125 10.046875 -7.46875 9.53125 -8 9 C-7.75 5.625 -7.75 5.625 -7 2 C-4.4664092 0.05758039 -3.21812786 0 0 0 Z " fill="#FD9F5E" transform="translate(76,55)"/>
<path d="M0 0 C1.90845703 0.15275391 1.90845703 0.15275391 3.85546875 0.30859375 C4.83128906 0.39238281 5.80710937 0.47617188 6.8125 0.5625 C6.8125 1.5525 6.8125 2.5425 6.8125 3.5625 C5.94238281 3.81773438 5.94238281 3.81773438 5.0546875 4.078125 C0.00893129 5.64347511 -3.94705006 7.40934491 -8.1875 10.5625 C-10.28100689 7.1605513 -10.36692163 4.50977588 -10.1875 0.5625 C-6.51762779 -0.66079074 -3.84782178 -0.31771006 0 0 Z " fill="#74A633" transform="translate(35.1875,82.4375)"/>
<path d="M0 0 C0.33 0.66 0.66 1.32 1 2 C4.02934491 2.65772428 4.02934491 2.65772428 7 3 C7.125 10.625 7.125 10.625 6 14 C0.25 12.125 0.25 12.125 -2 11 C-3.50637312 4.85863268 -3.50637312 4.85863268 -1.5625 1.5625 C-1.046875 1.046875 -0.53125 0.53125 0 0 Z " fill="#7DB437" transform="translate(31,59)"/>
<path d="M0 0 C1.65 0 3.3 0 5 0 C6.125 3.75 6.125 3.75 5 6 C5.7691998 7.72682581 5.7691998 7.72682581 6.9375 9.5 C9 12.8 9 12.8 9 15 C6.03 14.67 3.06 14.34 0 14 C-1.93103448 3.86206897 -1.93103448 3.86206897 0 0 Z " fill="#FC863A" transform="translate(61,56)"/>
<path d="M0 0 C3 1 3 1 4.6875 3.5 C6.30973403 7.82595742 6.27356283 11.44061947 6 16 C-0.75 14.25 -0.75 14.25 -3 12 C-3.3125 9.5 -3.3125 9.5 -3 7 C-2.01 6.34 -1.02 5.68 0 5 C-0.33 4.01 -0.66 3.02 -1 2 C-0.67 1.34 -0.34 0.68 0 0 Z " fill="#FDAA70" transform="translate(55,53)"/>
<path d="M0 0 C1.640625 1.5234375 1.640625 1.5234375 3.25 3.375 C3.79140625 3.98085938 4.3328125 4.58671875 4.890625 5.2109375 C5.25671875 5.80132812 5.6228125 6.39171875 6 7 C5.67 7.99 5.34 8.98 5 10 C2.9375 10.6875 2.9375 10.6875 1 11 C0.67 10.01 0.34 9.02 0 8 C-1.65 8.33 -3.3 8.66 -5 9 C-6.06775224 7.03533587 -7.06553465 5.03144641 -8 3 C-6.14481495 -0.71037009 -3.79223618 -1.26407873 0 0 Z " fill="#FDA76A" transform="translate(94,46)"/>
<path d="M0 0 C7.37416274 2.44667437 13.23718103 6.89168467 18 13 C19.5 16.5 19.5 16.5 20 19 C18 17 16 15 14 13 C12.865625 13.020625 11.73125 13.04125 10.5625 13.0625 C7 13 7 13 5 11 C6 10 6 10 8.5625 9.9375 C9.366875 9.958125 10.17125 9.97875 11 10 C11 9.34 11 8.68 11 8 C9.67741528 7.31225595 8.34013497 6.65288627 7 6 C6.01 5.484375 5.02 4.96875 4 4.4375 C-1.06037673 2.24503918 -6.56112042 2.25899427 -12 2 C-7.88879431 -0.7408038 -4.82674466 -0.7076246 0 0 Z " fill="#F6F1E3" transform="translate(73,25)"/>
<path d="M0 0 C2.1723491 3.25852365 4.07119658 6.59244728 6 10 C5.01 11.485 5.01 11.485 4 13 C-2.75 12.125 -2.75 12.125 -5 11 C-5.125 7.625 -5.125 7.625 -5 4 C-4.34 3.34 -3.68 2.68 -3 2 C-2.01 2 -1.02 2 0 2 C0 1.34 0 0.68 0 0 Z " fill="#7DAF3C" transform="translate(45,57)"/>
<path d="M0 0 C3.15628514 0.32423055 6.05762133 0.78444286 9 2 C10.73456566 4.31810781 11.20969869 6.1549153 12 9 C11 10 11 10 8.25 10.3125 C4.2054922 9.92360502 2.69827023 9.01571379 0 6 C-0.3125 2.75 -0.3125 2.75 0 0 Z " fill="#7CB237" transform="translate(39,70)"/>
<path d="M0 0 C3.63 1.32 7.26 2.64 11 4 C11 5.65 11 7.3 11 9 C7.47940432 10.17353189 4.693507 10.20146402 1 10 C0.34 9.34 -0.32 8.68 -1 8 C-0.96712417 5.27130593 -0.43602229 2.7033382 0 0 Z " fill="#7FB53A" transform="translate(51,67)"/>
<path d="M0 0 C4.54805635 -0.17835515 7.8794254 0.00214565 12 2 C11.01 2.495 11.01 2.495 10 3 C10 5.97 10 8.94 10 12 C6.19118071 10.09559036 5.12553143 9.26335631 2.75 6 C2.22921875 5.29875 1.7084375 4.5975 1.171875 3.875 C0 2 0 2 0 0 Z " fill="#4F7025" transform="translate(87,33)"/>
<path d="M0 0 C0.66 0 1.32 0 2 0 C1.67 2.97 1.34 5.94 1 9 C-4.96282928 10.75377332 -10.65017366 11.38602725 -16.8515625 11.75390625 C-19.9483447 11.99596243 -22.9452906 12.44501526 -26 13 C-25 11 -25 11 -22.5234375 9.9453125 C-18.23344131 8.79433791 -14.03686216 8.30422423 -9.625 7.875 C-8.79355469 7.78863281 -7.96210937 7.70226562 -7.10546875 7.61328125 C-5.07092853 7.40281157 -3.0355403 7.20056686 -1 7 C-0.67 4.69 -0.34 2.38 0 0 Z " fill="#527525" transform="translate(71,74)"/>
<path d="M0 0 C0.33 0.66 0.66 1.32 1 2 C-0.65 2.33 -2.3 2.66 -4 3 C-1.07175348 3.97608217 0.95613276 4.08226668 4 4 C2.5 5.5625 2.5 5.5625 0 7 C-1.86024311 6.83390687 -3.7225783 6.64871742 -5.5625 6.328125 C-10.34195356 5.68473702 -15.18655722 5.92779836 -20 6 C-20 5.34 -20 4.68 -20 4 C-13.4 2.68 -6.8 1.36 0 0 Z " fill="#FDC8A0" transform="translate(83,33)"/>
<path d="M0 0 C-2.31 3.63 -4.62 7.26 -7 11 C-10 7 -10 7 -9.6875 3.25 C-9.3471875 1.64125 -9.3471875 1.64125 -9 0 C-5.32431536 -0.91892116 -3.83619425 -0.95904856 0 0 Z " fill="#FDA567" transform="translate(133,102)"/>
<path d="M0 0 C1.2065625 0.0309375 1.2065625 0.0309375 2.4375 0.0625 C2.63372241 4.28128192 2.23980168 7.23260894 0.4375 11.0625 C-0.8825 11.0625 -2.2025 11.0625 -3.5625 11.0625 C-3.5625 9.0825 -3.5625 7.1025 -3.5625 5.0625 C-4.2225 5.0625 -4.8825 5.0625 -5.5625 5.0625 C-3.15007962 0.07683121 -3.15007962 0.07683121 0 0 Z " fill="#FDB17A" transform="translate(81.5625,43.9375)"/>
<path d="M0 0 C0.33 0 0.66 0 1 0 C1.04898438 0.97582031 1.09796875 1.95164063 1.1484375 2.95703125 C1.22320312 4.22933594 1.29796875 5.50164062 1.375 6.8125 C1.44460937 8.07707031 1.51421875 9.34164062 1.5859375 10.64453125 C1.76102939 14.12755234 1.76102939 14.12755234 4 17 C0.59678901 16.39228375 -1.30695989 15.12178918 -4 13 C-4.86625 12.484375 -5.7325 11.96875 -6.625 11.4375 C-9 10 -9 10 -11 8 C-11.125 5.375 -11.125 5.375 -11 3 C-10.34 3 -9.68 3 -9 3 C-9 4.65 -9 6.3 -9 8 C-8.05125 8.309375 -7.1025 8.61875 -6.125 8.9375 C-3 10 -3 10 -1 11 C-0.67 7.37 -0.34 3.74 0 0 Z " fill="#435F1F" transform="translate(38,62)"/>
<path d="M0 0 C0.66 0 1.32 0 2 0 C2.61771981 9.33443268 1.12938878 15.00323714 -4.4375 22.4375 C-7.10055357 25.10055357 -8.3044207 25.78882404 -12 26 C-11.278125 25.34 -10.55625 24.68 -9.8125 24 C-4.56275053 18.78016363 -1.03555163 12.7224915 -0.4375 5.375 C-0.35371094 4.37210937 -0.26992187 3.36921875 -0.18359375 2.3359375 C-0.12300781 1.56507812 -0.06242187 0.79421875 0 0 Z " fill="#F8E8D6" transform="translate(95,88)"/>
<path d="M0 0 C1.25 2.5625 1.25 2.5625 2 5 C1.01 5 0.02 5 -1 5 C-1 6.32 -1 7.64 -1 9 C-1.99 8.34 -2.98 7.68 -4 7 C-4 6.01 -4 5.02 -4 4 C-7.3 4 -10.6 4 -14 4 C-10.4552841 0.4552841 -4.96602575 -2.7589032 0 0 Z " fill="#FDB27C" transform="translate(89,39)"/>
<path d="M0 0 C1.46132217 2.92264434 2.34099246 4.92463146 3 8 C-0.50776784 9.60355101 -3.14354879 10.22036864 -7 10 C-7.33 9.01 -7.66 8.02 -8 7 C-5.36 4.69 -2.72 2.38 0 0 Z " fill="#77AB35" transform="translate(42,49)"/>
<path d="M0 0 C3.3 0.33 6.6 0.66 10 1 C9.01 1.495 9.01 1.495 8 2 C7.59270772 4.32156597 7.25561323 6.6568787 7 9 C4.69 9.33 2.38 9.66 0 10 C0.25 7.625 0.25 7.625 1 5 C3.0625 3.6875 3.0625 3.6875 5 3 C3.35 2.67 1.7 2.34 0 2 C0 1.34 0 0.68 0 0 Z " fill="#7AAD39" transform="translate(63,72)"/>
<path d="M0 0 C0.99 0.33 1.98 0.66 3 1 C2.34 2.65 1.68 4.3 1 6 C1.66 6 2.32 6 3 6 C3 6.66 3 7.32 3 8 C2.34 8 1.68 8 1 8 C1 8.66 1 9.32 1 10 C-0.65 10 -2.3 10 -4 10 C-4 10.99 -4 11.98 -4 13 C-4.66 13 -5.32 13 -6 13 C-6.33 11.68 -6.66 10.36 -7 9 C-6.01 8.67 -5.02 8.34 -4 8 C-3.26676204 5.98491642 -3.26676204 5.98491642 -3 4 C-2.01 4 -1.02 4 0 4 C0 2.68 0 1.36 0 0 Z " fill="#73A533" transform="translate(27,71)"/>
<path d="M0 0 C0.33 0.66 0.66 1.32 1 2 C1.66 2 2.32 2 3 2 C3.36923077 7.53846154 3.36923077 7.53846154 1.5 9.875 C1.005 10.24625 0.51 10.6175 0 11 C-0.99 10.01 -1.98 9.02 -3 8 C-3.99 8.495 -3.99 8.495 -5 9 C-5.99 8.34 -6.98 7.68 -8 7 C-7.05125 6.401875 -6.1025 5.80375 -5.125 5.1875 C-1.86035803 3.18437474 -1.86035803 3.18437474 0 0 Z " fill="#FC914A" transform="translate(92,107)"/>
<path d="M0 0 C-0.33 0.33 -0.66 0.66 -1 1 C-0.34 1.66 0.32 2.32 1 3 C0.01 3.33 -0.98 3.66 -2 4 C-0.68 4.66 0.64 5.32 2 6 C0.02 7.32 -1.96 8.64 -4 10 C-6.09350689 6.5980513 -6.17942163 3.94727588 -6 0 C-3 -1 -3 -1 0 0 Z " fill="#7AAD37" transform="translate(31,83)"/>
<path d="M0 0 C0.53625 0.45375 1.0725 0.9075 1.625 1.375 C6.74785266 4.88010971 12.59416537 5.51714006 18.609375 6.4375 C21 7 21 7 23 9 C15.47099741 9.50193351 8.83936102 8.32725671 2 5 C0.1484375 2.859375 0.1484375 2.859375 -1 1 C-0.67 0.67 -0.34 0.34 0 0 Z " fill="#EAEDD9" transform="translate(51,64)"/>
<path d="M0 0 C0 0.66 0 1.32 0 2 C0.66 2 1.32 2 2 2 C2.33 3.98 2.66 5.96 3 8 C1 5 1 5 1 3 C-4.70044226 5.25953144 -10.37643369 7.55497117 -16 10 C-16.66 9.34 -17.32 8.68 -18 8 C-15.3773768 6.66180502 -12.75213401 5.3292849 -10.125 4 C-9.00544922 3.42765625 -9.00544922 3.42765625 -7.86328125 2.84375 C-7.14785156 2.4828125 -6.43242187 2.121875 -5.6953125 1.75 C-5.03547363 1.41484375 -4.37563477 1.0796875 -3.69580078 0.734375 C-2 0 -2 0 0 0 Z " fill="#ECE6C8" transform="translate(135,44)"/>
<path d="M0 0 C1.36741555 2.25221384 2.04066478 3.52557758 1.8125 6.1875 C1.544375 6.785625 1.27625 7.38375 1 8 C0.01 8.33 -0.98 8.66 -2 9 C-2.33 9.99 -2.66 10.98 -3 12 C-3.99 12.495 -3.99 12.495 -5 13 C-5 14.32 -5 15.64 -5 17 C-4.01 17 -3.02 17 -2 17 C-2 17.66 -2 18.32 -2 19 C-3.98 18.34 -5.96 17.68 -8 17 C-7.60646207 11.49046898 -5.56640637 9.08831949 -2 5 C-0.6950516 2.2875382 -0.6950516 2.2875382 0 0 Z " fill="#537526" transform="translate(26,67)"/>
<path d="M0 0 C2.1047116 3.42015636 2.16877959 6.03367953 2 10 C2 10.99 2 11.98 2 13 C1.01 13.495 1.01 13.495 0 14 C0 13.01 0 12.02 0 11 C-1.32 10.67 -2.64 10.34 -4 10 C-2.99806563 6.20696275 -2.18975773 3.28463659 0 0 Z " fill="#FC873D" transform="translate(114,111)"/>
<path d="M0 0 C1.60031344 3.20062687 0.03173691 5.72271806 -1 9 C-3.31 8.34 -5.62 7.68 -8 7 C-6.84826645 4.53199953 -5.95216435 2.95216435 -4 1 C-1.875 0.375 -1.875 0.375 0 0 Z " fill="#FDA86C" transform="translate(138,84)"/>
<path d="M0 0 C3.36591866 1.44253657 5.51047079 3.33264727 8 6 C7.67 6.99 7.34 7.98 7 9 C4.9375 9.6875 4.9375 9.6875 3 10 C0.96564469 6.27034861 0 4.33094958 0 0 Z " fill="#FC914B" transform="translate(92,47)"/>
<path d="M0 0 C-1 2 -1 2 -3.8359375 3.0703125 C-5.00382812 3.41835937 -6.17171875 3.76640625 -7.375 4.125 C-8.53773437 4.47820312 -9.70046875 4.83140625 -10.8984375 5.1953125 C-14 6 -14 6 -17 6 C-16.40625 4.11328125 -16.40625 4.11328125 -15 2 C-12.03125 0.91796875 -12.03125 0.91796875 -8.5 0.1875 C-6.75203125 -0.19341797 -6.75203125 -0.19341797 -4.96875 -0.58203125 C-2 -1 -2 -1 0 0 Z " fill="#76AA34" transform="translate(60,80)"/>
<path d="M0 0 C1.3125 2.0625 1.3125 2.0625 2 4 C1.01 3.67 0.02 3.34 -1 3 C-1.66 4.65 -2.32 6.3 -3 8 C-5.79872437 5.47211993 -7.45773019 3.79588866 -8 0 C-4.66411172 -1.11196276 -3.29427581 -1.09809194 0 0 Z " fill="#FDCAA4" transform="translate(55,56)"/>
<path d="M0 0 C0.33 1.65 0.66 3.3 1 5 C-0.98 5.66 -2.96 6.32 -5 7 C-7 4 -7 4 -6.75 1.875 C-5.30271515 -1.74321213 -3.20716161 -0.96214848 0 0 Z " fill="#85BD3D" transform="translate(116,48)"/>
<path d="M0 0 C2.31 0 4.62 0 7 0 C6.67 1.65 6.34 3.3 6 5 C3.36 5.33 0.72 5.66 -2 6 C-1.34 4.02 -0.68 2.04 0 0 Z " fill="#FC8B40" transform="translate(127,96)"/>
<path d="M0 0 C0.99 0 1.98 0 3 0 C7 6.75 7 6.75 7 9 C4.03 8.67 1.06 8.34 -2 8 C-1.34 7.67 -0.68 7.34 0 7 C0 4.69 0 2.38 0 0 Z " fill="#FD9A57" transform="translate(63,62)"/>
<path d="M0 0 C0 0.66 0 1.32 0 2 C0.66 2 1.32 2 2 2 C2.33 3.65 2.66 5.3 3 7 C-0.75 8.125 -0.75 8.125 -3 7 C-3 6.01 -3 5.02 -3 4 C-3.66 4 -4.32 4 -5 4 C-4.67 3.01 -4.34 2.02 -4 1 C-2 0 -2 0 0 0 Z " fill="#FDA970" transform="translate(63,37)"/>
<path d="M0 0 C0.99 0.66 1.98 1.32 3 2 C2.67 2.66 2.34 3.32 2 4 C1.01 3.67 0.02 3.34 -1 3 C-1 4.32 -1 5.64 -1 7 C-1.66 7 -2.32 7 -3 7 C-3.33 7.99 -3.66 8.98 -4 10 C-5.5 8.6875 -5.5 8.6875 -7 7 C-7 6.01 -7 5.02 -7 4 C-4.69 2.68 -2.38 1.36 0 0 Z " fill="#FDBA89" transform="translate(18,103)"/>
<path d="M0 0 C0.33 0.66 0.66 1.32 1 2 C2.65 1.67 4.3 1.34 6 1 C6.99 2.32 7.98 3.64 9 5 C6.6875 6.5625 6.6875 6.5625 4 8 C3.01 7.67 2.02 7.34 1 7 C0.67 4.69 0.34 2.38 0 0 Z " fill="#FC883D" transform="translate(88,56)"/>
<path d="M0 0 C0.66 0.33 1.32 0.66 2 1 C2.625 4.0625 2.625 4.0625 3 7 C0 7 -3 7 -6 7 C-4.60667426 3.63279613 -3.0210714 2.0140476 0 0 Z " fill="#FC873B" transform="translate(25,97)"/>
<path d="M0 0 C0.33 0.99 0.66 1.98 1 3 C3.01508358 3.73323796 3.01508358 3.73323796 5 4 C5.33 5.65 5.66 7.3 6 9 C3.36 8.34 0.72 7.68 -2 7 C-1.34 4.69 -0.68 2.38 0 0 Z " fill="#70A032" transform="translate(17,81)"/>
<path d="M0 0 C1.98 0 3.96 0 6 0 C6.66 1.32 7.32 2.64 8 4 C7 5 7 5 3.9375 5.0625 C2.968125 5.041875 1.99875 5.02125 1 5 C0.67 3.35 0.34 1.7 0 0 Z " fill="#FDC9A2" transform="translate(46,49)"/>
<path d="M0 0 C0.99 0 1.98 0 3 0 C3 0.99 3 1.98 3 3 C4.32 3 5.64 3 7 3 C7 3.99 7 4.98 7 6 C2.25 7.125 2.25 7.125 0 6 C0 4.02 0 2.04 0 0 Z " fill="#6F9F31" transform="translate(100,45)"/>
<path d="M0 0 C1.43739513 -0.02712066 2.87493863 -0.04645067 4.3125 -0.0625 C5.51326172 -0.07990234 5.51326172 -0.07990234 6.73828125 -0.09765625 C9 0 9 0 12 1 C12 1.66 12 2.32 12 3 C8.59437148 3.77842938 5.49234244 4.09978121 2 4 C2 3.01 2 2.02 2 1 C1.34 0.67 0.68 0.34 0 0 Z " fill="#FDA465" transform="translate(66,38)"/>
<path d="M0 0 C1.89213369 2.38573379 3.02391783 4.07175348 4 7 C5.65 7 7.3 7 9 7 C9.33 8.32 9.66 9.64 10 11 C7.25 11.375 7.25 11.375 4 11 C1.38193045 8.03744762 0.0947525 6.08965379 -0.25 2.125 C-0.1675 1.42375 -0.085 0.7225 0 0 Z " fill="#FC7C2D" transform="translate(85,47)"/>
<path d="M0 0 C1.65 0.33 3.3 0.66 5 1 C4.01 1.66 3.02 2.32 2 3 C1.27617533 5.05925139 1.27617533 5.05925139 1 7 C1.99 7 2.98 7 4 7 C4 7.66 4 8.32 4 9 C-0.455 9.495 -0.455 9.495 -5 10 C-3.68 9.67 -2.36 9.34 -1 9 C-0.67 6.03 -0.34 3.06 0 0 Z " fill="#6E9E30" transform="translate(73,74)"/>
<path d="M0 0 C-1.11328125 1.48828125 -1.11328125 1.48828125 -3 3 C-5.91796875 3.29296875 -5.91796875 3.29296875 -9.1875 3.1875 C-10.27417969 3.16042969 -11.36085938 3.13335937 -12.48046875 3.10546875 C-13.31191406 3.07066406 -14.14335938 3.03585938 -15 3 C-13 0 -13 0 -10.72265625 -0.546875 C-9.84480469 -0.61390625 -8.96695313 -0.6809375 -8.0625 -0.75 C-7.18722656 -0.82734375 -6.31195313 -0.9046875 -5.41015625 -0.984375 C-3 -1 -3 -1 0 0 Z " fill="#E4D0A3" transform="translate(84,114)"/>
<path d="M0 0 C0.66 0 1.32 0 2 0 C1.54177532 3.46941546 1.10868317 6.67395049 0 10 C-0.99 9.67 -1.98 9.34 -3 9 C-3 7.35 -3 5.7 -3 4 C-2.34 3.67 -1.68 3.34 -1 3 C-0.67 2.01 -0.34 1.02 0 0 Z " fill="#FDB884" transform="translate(82,45)"/>
<path d="M0 0 C3 1 3 1 4.25 3.375 C5.28633775 8.38396579 4.66316357 12.9635415 4 18 C3.67 18 3.34 18 3 18 C2.95101562 17.20335938 2.90203125 16.40671875 2.8515625 15.5859375 C2.29970605 7.61842686 2.29970605 7.61842686 0 0 Z " fill="#DFE7BF" transform="translate(91,81)"/>
<path d="M0 0 C-0.33 1.65 -0.66 3.3 -1 5 C-6.41538462 5.36923077 -6.41538462 5.36923077 -9.375 3.5 C-9.91125 3.005 -10.4475 2.51 -11 2 C-3.375 0 -3.375 0 0 0 Z " fill="#FC8032" transform="translate(117,56)"/>
<path d="M0 0 C2.375 0.3125 2.375 0.3125 5 1 C5.66 1.99 6.32 2.98 7 4 C3.7 4.66 0.4 5.32 -3 6 C-3 4 -3 4 -1 2 C-0.67 1.34 -0.34 0.68 0 0 Z " fill="#64902D" transform="translate(51,76)"/>
<path d="M0 0 C0.99 0 1.98 0 3 0 C3.33 1.32 3.66 2.64 4 4 C0.77208445 6.1519437 -0.28400809 6.20086443 -4 6 C-2.1875 3 -2.1875 3 0 0 Z " fill="#FD9751" transform="translate(76,61)"/>
<path d="M0 0 C0.99 0 1.98 0 3 0 C3 0.66 3 1.32 3 2 C3.66 2 4.32 2 5 2 C6.60355101 5.50776784 7.22036864 8.14354879 7 12 C6.34 12 5.68 12 5 12 C4.87625 10.329375 4.87625 10.329375 4.75 8.625 C4.42126213 4.94246056 4.42126213 4.94246056 1.9375 3.5625 C1.298125 3.376875 0.65875 3.19125 0 3 C0 2.01 0 1.02 0 0 Z " fill="#60892B" transform="translate(113,31)"/>
<path d="M0 0 C2.64 0 5.28 0 8 0 C7.25 1.9375 7.25 1.9375 6 4 C3.875 4.75 3.875 4.75 2 5 C2 4.34 2 3.68 2 3 C1.34 3 0.68 3 0 3 C0 2.01 0 1.02 0 0 Z " fill="#648C2F" transform="translate(16,94)"/>
<path d="M0 0 C1.2684375 0.433125 1.2684375 0.433125 2.5625 0.875 C6.70109286 2.22944857 10.6794735 2.63515554 15 3 C15 3.33 15 3.66 15 4 C12.91731407 4.08126087 10.83371342 4.13930839 8.75 4.1875 C7.00976562 4.23970703 7.00976562 4.23970703 5.234375 4.29296875 C1.77731593 3.97982934 0.48434437 3.34290892 -2 1 C-1.34 0.67 -0.68 0.34 0 0 Z " fill="#F3E8D4" transform="translate(65,112)"/>
<path d="M0 0 C1.1577506 3.47325181 1.06866652 6.36067448 1 10 C-1 9 -1 9 -2 6 C-5.00847418 4.77479736 -5.00847418 4.77479736 -8 4 C-7.67 3.34 -7.34 2.68 -7 2 C-5.02 2 -3.04 2 -1 2 C-0.67 1.34 -0.34 0.68 0 0 Z " fill="#405B1E" transform="translate(50,67)"/>
<path d="M0 0 C2.31 0.33 4.62 0.66 7 1 C7.33 1.99 7.66 2.98 8 4 C8.99 4.33 9.98 4.66 11 5 C8.3125 5.3125 8.3125 5.3125 5 5 C2.125 2.5 2.125 2.5 0 0 Z " fill="#93C254" transform="translate(100,51)"/>
<path d="M0 0 C0.99 0 1.98 0 3 0 C3.33 0.66 3.66 1.32 4 2 C6.02463255 2.65213292 6.02463255 2.65213292 8 3 C7.67 4.98 7.34 6.96 7 9 C4.08511023 6.3765992 2.11496102 3.28183606 0 0 Z " fill="#75A13D" transform="translate(87,34)"/>
<path d="M0 0 C2.97 0.33 5.94 0.66 9 1 C9 1.66 9 2.32 9 3 C6.08517222 3.80967438 4.53886783 4.21845993 1.6875 3.0625 C1.130625 2.711875 0.57375 2.36125 0 2 C0 1.34 0 0.68 0 0 Z " fill="#7AAE36" transform="translate(96,31)"/>
<path d="M0 0 C0.66 0 1.32 0 2 0 C0.66087415 4.38259368 -1.12225036 6.54093925 -5 9 C-5.99 8.67 -6.98 8.34 -8 8 C-7.50628906 7.59007813 -7.01257813 7.18015625 -6.50390625 6.7578125 C-5.86324219 6.21898438 -5.22257812 5.68015625 -4.5625 5.125 C-3.92441406 4.59132813 -3.28632812 4.05765625 -2.62890625 3.5078125 C-0.89194996 2.0777243 -0.89194996 2.0777243 0 0 Z " fill="#F5EFE1" transform="translate(91,105)"/>
<path d="M0 0 C3.79303725 1.00193437 6.71536341 1.81024227 10 4 C9.06027344 3.98259766 9.06027344 3.98259766 8.1015625 3.96484375 C6.87566406 3.95130859 6.87566406 3.95130859 5.625 3.9375 C4.40683594 3.92009766 4.40683594 3.92009766 3.1640625 3.90234375 C0.95062858 3.85533666 0.95062858 3.85533666 -1 5 C-0.67 3.35 -0.34 1.7 0 0 Z " fill="#597F29" transform="translate(15,88)"/>
<path d="M0 0 C0 1.65 0 3.3 0 5 C-1.65 5.33 -3.3 5.66 -5 6 C-4.625 3.5625 -4.625 3.5625 -4 1 C-2 0 -2 0 0 0 Z " fill="#FD9047" transform="translate(88,63)"/>
<path d="M0 0 C6.52307692 -0.36923077 6.52307692 -0.36923077 8.9375 1.5 C9.288125 1.995 9.63875 2.49 10 3 C9.67 3.99 9.34 4.98 9 6 C8.608125 5.525625 8.21625 5.05125 7.8125 4.5625 C5.59091827 2.64734334 3.83963065 2.52308986 1 2 C0.67 1.34 0.34 0.68 0 0 Z " fill="#F0DBBF" transform="translate(87,43)"/>
<path d="M0 0 C2.31 0 4.62 0 7 0 C7.33 1.65 7.66 3.3 8 5 C4.62496331 3.8141763 2.35277269 2.72426311 0 0 Z " fill="#FC8942" transform="translate(28,126)"/>
<path d="M0 0 C1.41377341 2.63904371 2.37240135 5.07120629 3 8 C2.34 8 1.68 8 1 8 C0.34 6.68 -0.32 5.36 -1 4 C-1.99 4.99 -2.98 5.98 -4 7 C-4.66 6.67 -5.32 6.34 -6 6 C-4 4 -2 2 0 0 Z " fill="#68962D" transform="translate(42,49)"/>
<path d="M0 0 C-1.28913487 0.67154933 -2.58140204 1.33708859 -3.875 2 C-4.59429687 2.37125 -5.31359375 2.7425 -6.0546875 3.125 C-8 4 -8 4 -10 4 C-10 3.01 -10 2.02 -10 1 C-6.16112237 -0.48320272 -3.93795909 -1.22419163 0 0 Z " fill="#FC9048" transform="translate(105,131)"/>
<path d="M0 0 C3.68802044 1.22934015 4.72356973 2.93859378 7 6 C6.34 6.66 5.68 7.32 5 8 C4.34 7.67 3.68 7.34 3 7 C3 6.34 3 5.68 3 5 C2.01 5 1.02 5 0 5 C0 3.35 0 1.7 0 0 Z " fill="#7AAD38" transform="translate(12,93)"/>
<path d="M0 0 C0 1.65 0 3.3 0 5 C-2.97 4.67 -5.94 4.34 -9 4 C-7.68 3.34 -6.36 2.68 -5 2 C-2 0 -2 0 0 0 Z " fill="#FC9D5B" transform="translate(81,68)"/>
<path d="M0 0 C0.99 1.32 1.98 2.64 3 4 C-0.69418201 5.231394 -3.2056261 4.64432764 -7 4 C-5.68 3.67 -4.36 3.34 -3 3 C-3 2.34 -3 1.68 -3 1 C-2.01 0.67 -1.02 0.34 0 0 Z " fill="#6B9930" transform="translate(94,29)"/>
<path d="M0 0 C4.20626034 1.50223584 5.73900021 4.28550034 8 8 C7.01 8 6.02 8 5 8 C3.61328125 6.50390625 3.61328125 6.50390625 2.3125 4.5625 C1.87550781 3.92441406 1.43851563 3.28632812 0.98828125 2.62890625 C0 1 0 1 0 0 Z " fill="#F2EBD8" transform="translate(46,93)"/>
<path d="M0 0 C1.75 1.625 1.75 1.625 3 3 C-1.08378283 2.25749403 -5.01939223 1.17076699 -9 0 C-9 -0.33 -9 -0.66 -9 -1 C-5.21834828 -2.05045881 -3.3045735 -2.203049 0 0 Z " fill="#F0DDC0" transform="translate(45,90)"/>
<path d="M0 0 C1.32168051 2.17688554 2.0131712 3.55217933 1.9375 6.125 C1 8 1 8 -1.5625 9.25 C-2.366875 9.4975 -3.17125 9.745 -4 10 C-2.66666667 6.66666667 -1.33333333 3.33333333 0 0 Z " fill="#5B8229" transform="translate(26,67)"/>
<path d="M0 0 C0.66 0 1.32 0 2 0 C2 0.66 2 1.32 2 2 C3.32 2.33 4.64 2.66 6 3 C5.67 3.66 5.34 4.32 5 5 C2.03 4.505 2.03 4.505 -1 4 C-0.67 2.68 -0.34 1.36 0 0 Z " fill="#425D1F" transform="translate(33,57)"/>
<path d="M0 0 C1.32 0.66 2.64 1.32 4 2 C4 2.99 4 3.98 4 5 C2.35 5 0.7 5 -1 5 C-0.67 3.35 -0.34 1.7 0 0 Z " fill="#FC8437" transform="translate(88,114)"/>
<path d="M0 0 C0.66 0.99 1.32 1.98 2 3 C1.0465616 6.46704871 -0.28676594 8.6567524 -3 11 C-3 6.97353778 -1.79493901 3.58987802 0 0 Z " fill="#73A533" transform="translate(72,96)"/>
<path d="M0 0 C0.66 0 1.32 0 2 0 C2 1.65 2 3.3 2 5 C4.475 5.99 4.475 5.99 7 7 C5.1875 7.6875 5.1875 7.6875 3 8 C1.25 6.875 1.25 6.875 0 5 C-0.1875 2.3125 -0.1875 2.3125 0 0 Z " fill="#39501B" transform="translate(27,65)"/>
<path d="M0 0 C0.33 0.66 0.66 1.32 1 2 C1.99 2.33 2.98 2.66 4 3 C2.68 3.33 1.36 3.66 0 4 C-0.33 6.31 -0.66 8.62 -1 11 C-1.33 11 -1.66 11 -2 11 C-3.35384615 4.6 -3.35384615 4.6 -1.5625 1.5625 C-1.046875 1.046875 -0.53125 0.53125 0 0 Z " fill="#648E2D" transform="translate(31,59)"/>
<path d="M0 0 C0 0.66 0 1.32 0 2 C0.99 1.67 1.98 1.34 3 1 C2.34 2.32 1.68 3.64 1 5 C-0.98 4.34 -2.96 3.68 -5 3 C-2.25 0 -2.25 0 0 0 Z " fill="#FDBC8C" transform="translate(135,88)"/>
<path d="M0 0 C0.99 0.33 1.98 0.66 3 1 C4.1875 3.5625 4.1875 3.5625 5 6 C0.125 4.25 0.125 4.25 -1 2 C-0.67 1.34 -0.34 0.68 0 0 Z " fill="#FD9F5D" transform="translate(55,53)"/>
<path d="M0 0 C0.99 0 1.98 0 3 0 C2.67 1.32 2.34 2.64 2 4 C0.68 4.33 -0.64 4.66 -2 5 C-1.125 1.125 -1.125 1.125 0 0 Z " fill="#FC7929" transform="translate(111,122)"/>
<path d="M0 0 C0.33 0 0.66 0 1 0 C1.36923077 5.53846154 1.36923077 5.53846154 -0.5 7.875 C-1.2425 8.431875 -1.2425 8.431875 -2 9 C-2 5.20442119 -1.49821059 3.37097383 0 0 Z " fill="#FD9149" transform="translate(113,113)"/>
<path d="M0 0 C0.66 0.33 1.32 0.66 2 1 C1.21654285 2.17219543 0.42297164 3.33763668 -0.375 4.5 C-0.81585938 5.1496875 -1.25671875 5.799375 -1.7109375 6.46875 C-2.13632813 6.9740625 -2.56171875 7.479375 -3 8 C-3.66 8 -4.32 8 -5 8 C-5 5 -5 5 -2.5 2.3125 C-1.675 1.549375 -0.85 0.78625 0 0 Z " fill="#628D2C" transform="translate(78,91)"/>
<path d="M0 0 C1.60379341 -0.05416188 3.20811406 -0.09286638 4.8125 -0.125 C5.70582031 -0.14820312 6.59914063 -0.17140625 7.51953125 -0.1953125 C10 0 10 0 13 2 C12.34 2 11.68 2 11 2 C10.67 2.66 10.34 3.32 10 4 C9.34 3.34 8.68 2.68 8 2 C5.34462628 1.43479997 2.70855287 1.26211802 0 1 C0 0.67 0 0.34 0 0 Z " fill="#97BE65" transform="translate(35,87)"/>
<path d="M0 0 C0.5775 0.45375 1.155 0.9075 1.75 1.375 C3.7800333 2.84113516 5.73539843 3.94857784 8 5 C6.3125 5.8125 6.3125 5.8125 4 6 C1.25 3.5625 1.25 3.5625 -1 1 C-0.67 0.67 -0.34 0.34 0 0 Z " fill="#E7E9CF" transform="translate(51,64)"/>
<path d="M0 0 C-2.5654594 2.5654594 -4.47686668 2.54046087 -8 3 C-7.67 2.01 -7.34 1.02 -7 0 C-3.86650268 -1.04449911 -3.01031744 -0.93423645 0 0 Z " fill="#FD954F" transform="translate(110,112)"/>
<path d="M0 0 C2.0625 0.4375 2.0625 0.4375 4 1 C2.71034824 2.37562854 1.37310707 3.70766393 0 5 C-0.66 5 -1.32 5 -2 5 C-1.125 1.125 -1.125 1.125 0 0 Z " fill="#FDA465" transform="translate(108,100)"/>
<path d="M0 0 C0.33 0.66 0.66 1.32 1 2 C1.66 2.33 2.32 2.66 3 3 C0.525 4.485 0.525 4.485 -2 6 C-2 2 -2 2 0 0 Z " fill="#FC924C" transform="translate(22,99)"/>
<path d="M0 0 C0.66 0.33 1.32 0.66 2 1 C1.67 1.99 1.34 2.98 1 4 C-0.98 4.33 -2.96 4.66 -5 5 C-3.35 3.35 -1.7 1.7 0 0 Z " fill="#FD9750" transform="translate(132,97)"/>
<path d="M0 0 C0.66 0 1.32 0 2 0 C1.34 2.31 0.68 4.62 0 7 C-0.66 6.34 -1.32 5.68 -2 5 C-2.99 5.495 -2.99 5.495 -4 6 C-2.84826645 3.53199953 -1.95216435 1.95216435 0 0 Z " fill="#FC7625" transform="translate(126,89)"/>
<path d="M0 0 C0.66 1.32 1.32 2.64 2 4 C1.34 4 0.68 4 0 4 C0 4.99 0 5.98 0 7 C-0.66 7 -1.32 7 -2 7 C-2.33 5.68 -2.66 4.36 -3 3 C-2.01 2.67 -1.02 2.34 0 2 C0 1.34 0 0.68 0 0 Z " fill="#6D9C31" transform="translate(23,77)"/>
<path d="M0 0 C0.33 1.65 0.66 3.3 1 5 C-3.875 3.25 -3.875 3.25 -5 1 C-3 0 -3 0 0 0 Z " fill="#FD9E5D" transform="translate(60,64)"/>
<path d="M0 0 C0 0.66 0 1.32 0 2 C-3.465 3.485 -3.465 3.485 -7 5 C-7 3.68 -7 2.36 -7 1 C-4.53721199 -0.231394 -2.7204945 -0.07159196 0 0 Z " fill="#FD8F47" transform="translate(75,53)"/>
<path d="M0 0 C0.33 1.32 0.66 2.64 1 4 C-1.64738916 5.4606285 -2.89448334 6 -6 6 C-6 5.34 -6 4.68 -6 4 C-4.7934375 3.566875 -4.7934375 3.566875 -3.5625 3.125 C-0.8673532 2.26737432 -0.8673532 2.26737432 0 0 Z " fill="#FDB37D" transform="translate(56,42)"/>
</svg>
